<svg width="20" height="21" viewBox="0 0 20 21" fill="none" xmlns="http://www.w3.org/2000/svg">
    <path d="M20 10.8621C19.9998 8.95113 19.452 7.0802 18.4215 5.47085C17.391 3.8615 15.921 2.58112 14.1854 1.7813C12.4498 0.981469 10.5214 0.695689 8.62847 0.957789C6.73552 1.21989 4.95732 2.01889 3.50437 3.26021C2.05142 4.50153 0.984574 6.13317 0.430132 7.96197C-0.12431 9.79078 -0.143127 11.7402 0.375907 13.5793C0.894941 15.4185 1.93009 17.0704 3.35881 18.3396C4.78752 19.6087 6.54997 20.4419 8.4375 20.7405V13.753H5.89833V10.8621H8.4375V8.6588C8.4375 6.15296 9.93083 4.76796 12.2142 4.76796C12.9643 4.77872 13.7126 4.84389 14.4533 4.96296V7.42463H13.1917C12.8119 7.37421 12.4276 7.47669 12.1233 7.70953C11.8191 7.94238 11.6197 8.28652 11.5692 8.6663C11.5549 8.77265 11.5526 8.88027 11.5625 8.98713V10.8621H14.3333L13.89 13.753H11.5567V20.7405C13.91 20.3696 16.0537 19.1707 17.6016 17.3597C19.1495 15.5487 20.0001 13.2445 20 10.8621Z" fill="white" fill-opacity="0.6"/>
</svg>
