<svg width="20" height="21" viewBox="0 0 20 21" fill="none" xmlns="http://www.w3.org/2000/svg">
    <path d="M19.1667 0.800781H0.833333C0.333333 0.800781 0 1.13411 0 1.63411V19.9674C0 20.4674 0.333333 20.8008 0.833333 20.8008H19.1667C19.6667 20.8008 20 20.4674 20 19.9674V1.63411C20 1.13411 19.6667 0.800781 19.1667 0.800781ZM5.91667 17.8841H3V8.30078H6V17.8841H5.91667ZM4.41667 6.96745C3.5 6.96745 2.66667 6.21745 2.66667 5.21745C2.66667 4.30078 3.41667 3.46745 4.41667 3.46745C5.33333 3.46745 6.16667 4.21745 6.16667 5.21745C6.16667 6.21745 5.41667 6.96745 4.41667 6.96745ZM17.0833 17.8841H14.0833V13.2174C14.0833 12.1341 14.0833 10.7174 12.5833 10.7174C11 10.7174 10.8333 11.8841 10.8333 13.1341V17.8841H7.83333V8.30078H10.6667V9.63411C11.0833 8.88411 12 8.13411 13.5 8.13411C16.5 8.13411 17.0833 10.1341 17.0833 12.7174V17.8841Z" fill="white" fill-opacity="0.6"/>
</svg>
