<svg width="121" height="98" viewBox="0 0 121 98" fill="none" xmlns="http://www.w3.org/2000/svg">
<g clip-path="url(#clip0_3293_2617)">
<path d="M0 39.9894C0 41.5421 0.30902 43.064 0.889979 44.4874C1.47712 45.9107 2.34237 47.2046 3.46721 48.3014C4.59204 49.392 5.86521 50.2608 7.3176 50.8708C8.74528 51.4561 10.3027 51.758 11.854 51.7888H19.5548C19.734 51.7888 19.8885 51.7149 20.0122 51.6102C20.1419 51.4808 20.2161 51.3329 20.2161 51.1542V45.8922C20.2161 45.7135 20.1419 45.5595 20.0122 45.4362C19.8824 45.3069 19.734 45.2329 19.5548 45.2329H13.5845C10.1173 45.2329 6.59449 42.4356 6.59449 39.0282L6.64394 13.0694C6.64394 13.0694 6.64394 12.8908 6.59449 12.8168C6.56977 12.7429 6.52033 12.6628 6.43998 12.6135C6.39054 12.5642 6.3102 12.5087 6.23603 12.4594C6.16187 12.4348 6.0568 12.4102 5.98263 12.4102H0.741649C0.562417 12.4102 0.407907 12.4841 0.284299 12.5888C0.15451 12.7182 0.0803453 12.8661 0.0803453 13.0448L0.00618041 39.9956L0 39.9894Z" fill="white"/>
<path d="M120.339 12.6379H115.061C115.061 12.6379 114.881 12.6379 114.807 12.6872C114.733 12.7119 114.653 12.7612 114.603 12.8413C114.554 12.8906 114.504 12.9707 114.449 13.0446C114.424 13.1185 114.399 13.1986 114.399 13.2972L114.325 51.3327C114.325 51.3327 114.325 51.5114 114.375 51.5853C114.399 51.6592 114.449 51.7393 114.529 51.7886C114.579 51.8379 114.659 51.8934 114.733 51.9427C114.807 51.9673 114.888 51.992 114.987 51.992H120.265C120.265 51.992 120.444 51.992 120.518 51.9427C120.592 51.918 120.672 51.8687 120.722 51.7886C120.771 51.7393 120.821 51.6592 120.876 51.5853C120.926 51.5114 120.926 51.4313 120.926 51.3327L121 13.2972C121 13.2972 121 13.1185 120.951 13.0446C120.926 12.9707 120.876 12.8906 120.796 12.8166C120.747 12.7673 120.666 12.718 120.567 12.6626C120.493 12.6379 120.388 12.6133 120.314 12.6133L120.339 12.6379Z" fill="white"/>
<path d="M94.5296 46.0384C93.0772 46.0384 91.6743 45.607 90.4753 44.8184C89.2763 44.0297 88.3307 42.8836 87.7991 41.565C87.2367 40.2403 87.1131 38.7923 87.3912 37.3937C87.6694 35.995 88.3616 34.701 89.3813 33.709C90.4011 32.6924 91.699 32.0084 93.1019 31.7496C94.5049 31.4724 95.982 31.6203 97.3108 32.1563C98.6396 32.717 99.783 33.6289 100.574 34.8243C101.365 36.0196 101.798 37.4183 101.798 38.8416C101.798 40.7456 101.007 42.5817 99.6532 43.9496C98.2749 45.299 96.4146 46.0568 94.5049 46.0568L94.5296 46.0322V46.0384ZM107.762 25.7298H102.484C102.305 25.7298 102.15 25.8037 102.026 25.9085C101.897 26.0132 101.822 26.1857 101.822 26.3644V27.1038C99.7335 25.8099 97.3108 25.1198 94.8325 25.0458C92.3603 24.9965 89.9128 25.5819 87.7682 26.7772C85.5989 27.9726 83.8128 29.6978 82.5396 31.8113C81.2912 33.9185 80.6299 36.3339 80.6299 38.78C80.6299 41.2262 81.2665 43.6353 82.5149 45.7488C83.7633 47.856 85.5495 49.6121 87.7188 50.8074C89.8881 52.0028 92.3108 52.6128 94.783 52.5635C97.2552 52.5142 99.6779 51.8241 101.773 50.5302V51.2695C101.773 51.2695 101.773 51.4482 101.822 51.5222C101.847 51.5961 101.897 51.6762 101.977 51.7255C102.026 51.7748 102.107 51.8302 102.181 51.8795C102.255 51.9042 102.36 51.9288 102.434 51.9288H107.712C107.892 51.9288 108.046 51.8549 108.17 51.7255C108.3 51.5961 108.374 51.4482 108.374 51.2695L108.423 26.3521C108.423 26.3521 108.423 26.1734 108.374 26.0995C108.349 26.0255 108.3 25.9454 108.219 25.8961C108.17 25.8468 108.089 25.7914 107.991 25.7667C107.916 25.7421 107.811 25.7175 107.737 25.7175L107.762 25.7421V25.7298Z" fill="white"/>
<path d="M65.9515 31.5489C67.2 31.4749 68.4484 31.7029 69.598 32.2328C70.7228 32.7689 71.7117 33.6068 72.4286 34.6235C72.5275 34.7529 72.6573 34.8515 72.8365 34.9008C72.991 34.9254 73.1702 34.9008 73.3186 34.8268L77.9106 32.2081C77.9106 32.2081 78.0651 32.1034 78.1146 32.0295C78.164 31.9555 78.2135 31.8754 78.2135 31.8015C78.2135 31.7275 78.2382 31.6228 78.2135 31.5489C78.2135 31.4749 78.164 31.3702 78.1146 31.2962C76.4829 28.807 74.085 26.8969 71.279 25.8556C68.4731 24.8142 65.3891 24.7095 62.509 25.5475C59.629 26.3854 57.1012 28.1415 55.3151 30.5075C53.5289 32.8982 52.5586 35.7695 52.5586 38.7456C52.5586 41.7216 53.5289 44.6176 55.3151 46.9836C57.1012 49.3743 59.6228 51.0996 62.509 51.9437C65.3891 52.7817 68.4484 52.6831 71.279 51.6356C74.085 50.5943 76.4829 48.6842 78.1146 46.1949C78.164 46.121 78.1887 46.0409 78.2135 45.9423V45.665C78.2135 45.5603 78.164 45.4864 78.0837 45.4371C78.0342 45.3631 77.9539 45.3077 77.8797 45.2584L73.3124 42.6397C73.1579 42.5658 73.0096 42.5411 72.8303 42.5658C72.6758 42.6151 72.5275 42.6952 72.4224 42.843C71.7117 43.8351 70.7661 44.6237 69.666 45.1536C68.572 45.6897 67.3483 45.9423 66.1246 45.8684C64.9009 45.8191 63.7019 45.4371 62.6574 44.8024C61.6129 44.1678 60.7476 43.2744 60.1605 42.2084C59.5486 41.1424 59.2396 39.9471 59.2149 38.7517C59.2149 37.5318 59.493 36.3364 60.0801 35.2705C60.6673 34.2045 61.5078 33.2864 62.5276 32.6271C63.5474 31.9678 64.7464 31.5858 65.9701 31.4811H65.9454V31.555L65.9515 31.5489Z" fill="white"/>
<path d="M32.0765 45.2801C33.4053 45.8655 34.8577 46.0442 36.2606 45.8162C37.6883 45.5882 38.9862 44.9289 40.0368 43.9369C41.0875 42.9449 41.823 41.7002 42.1258 40.3016C42.4596 38.9029 42.3298 37.4549 41.8168 36.1302C41.3038 34.8054 40.4138 33.6409 39.2148 32.8276C38.0406 32.0142 36.6376 31.5336 35.2099 31.5028C33.7823 31.4535 32.3546 31.8602 31.1309 32.5934C29.9071 33.3574 28.9368 34.448 28.3497 35.7481C27.9665 36.6108 27.7378 37.5535 27.7131 38.4962C27.6884 39.4389 27.8429 40.3755 28.1952 41.2689C28.5289 42.1562 29.0604 42.9695 29.697 43.6596C30.3583 44.3436 31.1494 44.9043 32.0147 45.2863H32.0641L32.0765 45.2801ZM40.7229 26.1114C43.2197 27.2328 45.3643 29.032 46.8167 31.3488C48.2691 33.6594 49.0355 36.3335 48.9613 39.0508C48.8872 41.768 47.991 44.4175 46.4088 46.6295C44.8266 48.8415 42.6079 50.5729 40.0307 51.5341C37.4534 52.5015 34.6475 52.7048 31.9714 52.0948C29.2953 51.4848 26.8478 50.1108 24.9566 48.1268C23.0716 46.1427 21.817 43.6535 21.3596 40.9547C20.9023 38.2621 21.2546 35.514 22.3794 33.0247C23.9122 29.7221 26.6872 27.1281 30.1049 25.828C33.5474 24.5341 37.3484 24.6326 40.7105 26.0806V26.1053L40.7229 26.1114Z" fill="white"/>
<path d="M45.8587 14.7703C42.6944 13.347 39.2519 12.583 35.7847 12.4844C35.7105 12.4844 35.6054 12.4844 35.5313 12.5337C35.4571 12.5583 35.3767 12.6076 35.3026 12.6877C35.2531 12.737 35.1975 12.8171 35.1481 12.891C35.1234 12.965 35.0986 13.0697 35.0986 13.1437V18.381C35.0986 18.5597 35.1481 18.7137 35.2779 18.837C35.4077 18.9602 35.556 19.0403 35.7352 19.0403C40.9144 19.219 45.8093 21.4063 49.4063 25.1156C49.5361 25.245 49.6844 25.2943 49.8636 25.2943C50.0429 25.2943 50.1974 25.2204 50.321 25.1156L54.2764 21.6097C54.2764 21.6097 54.3815 21.4803 54.4309 21.4064C54.4557 21.3324 54.4804 21.2277 54.4804 21.1537C54.4804 21.0798 54.4804 20.975 54.4309 20.9011C54.4062 20.8272 54.3568 20.7471 54.2764 20.6978C51.8784 18.2085 49.0478 16.2245 45.8896 14.8258L45.8649 14.7765L45.8587 14.7703Z" fill="white"/>
<path d="M50.9761 3.38271C46.2048 1.24464 41.0318 0.0985853 35.8032 0C35.729 0 35.624 0 35.5498 0.0492927C35.4757 0.073939 35.3953 0.123232 35.3211 0.203332C35.2717 0.252625 35.2161 0.332726 35.1666 0.406665C35.1419 0.480604 35.1172 0.585351 35.1172 0.65929V5.89664C35.1172 6.07532 35.1914 6.22936 35.2964 6.35259C35.4262 6.48199 35.5745 6.55593 35.7538 6.55593C40.0615 6.66067 44.3198 7.62188 48.2506 9.37793C52.1813 11.134 55.7474 13.6479 58.6831 16.778C58.8129 16.9074 58.9612 16.9813 59.1404 16.9813C59.3197 16.9813 59.4742 16.932 59.5978 16.8026L63.5532 13.2967C63.5532 13.2967 63.683 13.1673 63.7078 13.0934C63.7572 13.0194 63.7572 12.9393 63.7819 12.8407C63.7819 12.7668 63.7819 12.6621 63.7325 12.5881C63.7078 12.5142 63.6583 12.4341 63.6027 12.3601C60.0551 8.54612 55.7474 5.47149 50.9514 3.35806L50.9761 3.38271Z" fill="white"/>
<path d="M16.1866 92.9471C16.1866 94.6046 15.7355 95.8369 14.8084 96.6194C13.8813 97.4266 12.4784 97.8024 10.5748 97.8024H1.74921V94.506H10.0742C10.4759 94.506 10.8344 94.4813 11.1434 94.4135C11.4277 94.3643 11.6688 94.2718 11.8356 94.1301C12.1447 93.896 12.3115 93.5386 12.3115 93.0149C12.3115 92.4911 12.1694 92.0906 11.8851 91.8318C11.7182 91.7148 11.5266 91.6408 11.2918 91.5977C11.0322 91.5484 10.7232 91.5238 10.2905 91.5238H6.4834C4.69726 91.5238 3.34375 91.1417 2.41669 90.3839C1.5638 89.6014 1.10645 88.4183 1.10645 86.804C1.10645 85.0972 1.55762 83.8403 2.48468 83.0085C3.38702 82.2013 4.81469 81.8008 6.74298 81.8008H15.4697V85.1219H7.21887C6.38451 85.1219 5.81592 85.2636 5.5069 85.547C5.17315 85.7812 5.031 86.2371 5.031 86.8533C5.031 87.3031 5.17315 87.6358 5.43273 87.8946C5.76647 88.1287 6.19292 88.252 6.76152 88.252H11.0198C12.8739 88.252 14.2089 88.6093 14.9938 89.3426C15.7787 90.0758 16.1805 91.265 16.1805 92.9224V92.9471H16.1866Z" fill="white"/>
<path d="M21.99 97.8598H18.0654V81.8828H21.99V97.8598Z" fill="white"/>
<path d="M36.7981 97.8352H31.0688C29.8575 97.8352 28.9057 97.7428 28.1888 97.5271C27.478 97.3361 26.7858 96.9603 26.1183 96.4119C25.3087 95.7218 24.6907 94.8715 24.2889 93.8302C23.8872 92.7889 23.6709 91.5566 23.6709 90.1086C23.6709 87.3112 24.2889 85.2224 25.5003 83.873C26.7117 82.5237 28.5905 81.8582 31.1368 81.8582H36.7981V85.1054H31.211C30.1418 85.1054 29.3569 85.3642 28.8068 85.8879C28.2629 86.4116 27.9477 87.1695 27.855 88.143H36.7981V91.3902H27.855C27.855 91.9324 27.9292 92.4068 28.0713 92.8135C28.1888 93.214 28.3556 93.5467 28.6152 93.787C29.1406 94.3293 30.0182 94.5942 31.2295 94.5942H36.8166V97.8414H36.7919L36.7981 97.8352ZM35.3024 80.9525H33.232L31.4706 79.4367L29.7339 80.9525H27.6387L30.0614 77.4219H32.8426L35.2653 80.9525H35.2901H35.3024Z" fill="white"/>
<path d="M52.849 91.4575C52.849 91.9997 52.849 92.4741 52.7748 92.9054C52.7254 93.3306 52.6821 93.7373 52.6079 94.1131C52.4658 94.8463 52.2062 95.3947 51.8478 95.7706C51.2297 96.5285 50.4201 97.0768 49.4436 97.4527C48.4671 97.8101 47.2804 97.9949 45.8775 97.9949C44.4745 97.9949 43.2879 97.8286 42.3361 97.4712C41.3596 97.1138 40.55 96.5469 39.8887 95.7891C39.5549 95.3393 39.3448 94.7909 39.2212 94.1562C39.079 93.5154 38.9863 92.6159 38.9863 91.4513V81.8516H42.7193V91.3589C42.7193 92.7083 42.9541 93.6572 43.4115 94.1809C43.8874 94.7046 44.7217 94.9634 45.8837 94.9634C47.0456 94.9634 47.8799 94.7046 48.3805 94.1809C48.8564 93.6387 49.0728 92.7083 49.0728 91.3589V81.8516H52.8304V91.4513H52.8552L52.849 91.4575Z" fill="white"/>
<path d="M75.6292 90.1243C75.6292 90.8329 75.5798 91.4983 75.5118 92.0899C75.4191 92.6814 75.2522 93.2729 75.0359 93.8459C74.6095 94.9119 73.9914 95.7683 73.1818 96.4091C72.5638 96.8836 71.8716 97.2656 71.1361 97.4997C70.3759 97.7154 69.3994 97.8325 68.2375 97.8325H60.8643V81.8555H68.1386C70.6849 81.8555 72.5638 82.5209 73.7751 83.8703C75.0112 85.2197 75.6292 87.2838 75.6292 90.1058V90.1305V90.1243ZM71.5625 89.8409C71.5625 88.0417 71.3215 86.8094 70.8518 86.1193C70.3512 85.4292 69.4241 85.1026 68.0953 85.1026H64.6467V94.5853H68.0953C69.4241 94.5853 70.3326 94.2526 70.8271 93.5871C71.3277 92.9217 71.5625 91.6647 71.5625 89.8409Z" fill="white"/>
<path d="M92.3413 97.8598H88.1324L86.7295 94.1875H80.4502L79.0967 97.8598H75.0547L81.7604 81.8828H85.5861L92.3598 97.8598H92.3351H92.3413ZM85.4439 90.8849L83.5404 86.0234L81.711 90.8849H85.4439Z" fill="white"/>
<path d="M104.919 85.1456H99.9249V97.8508H96.0745V85.1456H91.1055V81.8984H104.919V85.1456Z" fill="white"/>
<path d="M120.975 97.8598H116.766L115.363 94.1875H109.084L107.73 97.8598H103.688L110.394 81.8828H114.226L121 97.8598H120.975ZM114.078 90.8849L112.174 86.0234L110.345 90.8849H114.078Z" fill="white"/>
<path d="M13.9988 72.9425H11.335L11.5019 65.3576L9.005 72.9425H6.24854L3.67749 65.2406L3.86909 72.9425H1.10645V61.3711H4.86413L7.55261 69.5044L10.2164 61.3711H13.9741V72.9425H13.9988Z" fill="white"/>
<path d="M26.7673 72.9425H23.7265L22.7006 70.2869H18.158L17.1567 72.9425H14.2334L19.085 61.3711H21.8415L26.7425 72.9425H26.7673ZM21.7735 67.8901L20.3953 64.3595L19.0665 67.8901H21.7797H21.7735ZM21.6313 76.1158H19.394V73.7189H21.6313V76.1158Z" fill="white"/>
<path d="M37.212 72.9425H34.1898L29.7214 65.0496L29.8141 72.9425H27.0576V61.3711H30.3147L34.5235 68.8389L34.4308 61.3711H37.212V72.9425Z" fill="white"/>
<path d="M48.9672 72.9421H43.7386C43.2627 72.9421 42.861 72.9421 42.5025 72.8682C42.1193 72.8189 41.8103 72.7757 41.5507 72.6772C41.0501 72.5108 40.5495 72.252 40.0983 71.8946C39.505 71.3955 39.0785 70.7794 38.7695 70.0215C38.4852 69.2636 38.3184 68.364 38.3184 67.3412C38.3184 65.3017 38.7695 63.8106 39.6471 62.8125C40.5248 61.8389 41.8845 61.3398 43.7139 61.3398H48.9425V63.6628H43.7139C42.8795 63.6628 42.2862 63.9462 41.8845 64.4699C41.4827 64.9937 41.2911 65.9179 41.2911 67.1933C41.2911 68.3579 41.4827 69.1835 41.8597 69.7073C42.2429 70.231 42.861 70.4898 43.7139 70.4898H46.1366V68.2593H43.0216V65.8871H48.9178V72.9051L48.9672 72.9298V72.9421Z" fill="white"/>
<path d="M65.1416 67.3451C65.1416 67.8689 65.1169 68.3433 65.0489 68.7685C64.981 69.1936 64.8573 69.6249 64.6905 70.0501C64.3815 70.8326 63.9303 71.4488 63.3617 71.8985C62.9105 72.2559 62.4099 72.5147 61.8846 72.6811C61.3407 72.8474 60.6238 72.9152 59.7709 72.9152H54.4434V61.3438H59.7214C61.5508 61.3438 62.9105 61.8428 63.8129 62.8164C64.6905 63.7899 65.1416 65.281 65.1416 67.3451ZM62.1936 67.1541C62.1936 65.8479 62.0267 64.9483 61.6683 64.4492C61.3098 63.9501 60.6485 63.716 59.672 63.716H57.1751V70.5923H59.672C60.6485 70.5923 61.2913 70.3581 61.6683 69.8591C62.0267 69.3846 62.2121 68.4604 62.2121 67.1541H62.1874H62.1936Z" fill="white"/>
<path d="M69.2144 72.9425H66.3838V61.3711H69.2144V72.9425Z" fill="white"/>
<path d="M85.9328 67.3472C85.9328 67.871 85.8833 68.3454 85.8153 68.7706C85.7412 69.1957 85.6237 69.627 85.4816 70.0275C85.1973 70.7854 84.7461 71.4015 84.1281 71.9006C83.6769 72.258 83.1763 72.5168 82.6324 72.6832C82.3728 72.7571 82.0638 72.8249 81.7301 72.8742C81.3963 72.9235 80.9946 72.9481 80.5187 72.9481H75.1912V67.8771H74.0293V66.2874H75.1912V61.3828H80.4446C82.2987 61.3828 83.6522 61.8819 84.5607 62.8554C85.4383 63.829 85.8895 65.3201 85.8895 67.3842L85.9389 67.3595L85.9328 67.3472ZM83.0094 67.1562C83.0094 65.8068 82.8426 64.9011 82.4841 64.4328C82.1256 63.9584 81.4581 63.7242 80.5125 63.7242H77.9415V66.2874H80.5558V67.8771H77.9415V70.6005H80.5125C81.4643 70.6005 82.1318 70.3664 82.4841 69.892C82.8426 69.4175 83.028 68.5179 83.028 67.1685H83.0033L83.0094 67.1562Z" fill="white"/>
<path d="M98.268 67.1538C98.268 69.1687 97.7921 70.6844 96.8404 71.6826C95.8886 72.6808 94.4609 73.1737 92.5388 73.1737C90.6167 73.1737 89.1149 72.6746 88.1878 71.6826C87.2607 70.6844 86.8096 69.144 86.8096 67.0367C86.8096 65.0712 87.2855 63.5739 88.2125 62.6066C89.1396 61.633 90.592 61.1586 92.5141 61.1586C94.4362 61.1586 95.8886 61.6577 96.8404 62.6312C97.7674 63.6294 98.2433 65.1205 98.2433 67.1353L98.268 67.16V67.1538ZM95.2705 60.7273H93.7749L92.4894 59.6367L91.2286 60.7273H89.7329L91.4943 58.1641H93.5153L95.2767 60.7273H95.2705ZM95.3447 67.1538C95.3447 65.8722 95.1037 64.948 94.6525 64.3318C94.2013 63.7403 93.4906 63.4569 92.5388 63.4569C91.587 63.4569 90.901 63.7403 90.4436 64.3318C90.2088 64.6399 90.0419 65.0219 89.9183 65.4717C89.8009 65.9215 89.7514 66.4452 89.7514 67.086C89.7514 68.4108 89.9863 69.3597 90.4436 69.9758C90.8948 70.5673 91.587 70.8754 92.5573 70.8754C93.5277 70.8754 94.1951 70.5673 94.671 69.9758C95.1469 69.3843 95.3632 68.4601 95.3632 67.1785L95.3385 67.1538H95.3447ZM93.6513 76.1128H91.414V73.7159H93.6513V76.1128Z" fill="white"/>
<path d="M109.201 72.9425H106.179L101.711 65.0496L101.803 72.9425H99.0469V61.3711H102.304L106.513 68.8389L106.42 61.3711H109.201V72.9425Z" fill="white"/>
<path d="M120.982 72.9421H115.753C115.277 72.9421 114.876 72.9421 114.517 72.8682C114.134 72.8189 113.825 72.7757 113.565 72.6772C113.065 72.5108 112.564 72.252 112.113 71.8946C111.52 71.3955 111.093 70.7794 110.784 70.0215C110.5 69.2636 110.333 68.364 110.333 67.3412C110.333 65.3017 110.784 63.8106 111.662 62.8125C112.539 61.8389 113.899 61.3398 115.729 61.3398H120.957V63.6628H115.729C114.894 63.6628 114.301 63.9462 113.899 64.4699C113.497 65.0121 113.306 65.9179 113.306 67.1933C113.306 68.3579 113.497 69.1835 113.874 69.7073C114.258 70.231 114.876 70.4898 115.729 70.4898H118.151V68.2593H115.036V65.8871H120.932V72.9051L120.982 72.9298V72.9421Z" fill="white"/>
</g>
<defs>
<clipPath id="clip0_3293_2617">
<rect width="121" height="98" fill="white"/>
</clipPath>
</defs>
</svg>
