<svg width="92" height="39" viewBox="0 0 92 39" fill="none" xmlns="http://www.w3.org/2000/svg">
<g clip-path="url(#clip0_1546_35163)">
<path d="M72.2405 34.6358C69.3134 34.6318 66.944 32.232 66.9467 29.2773C66.9467 26.3199 69.3253 23.9254 72.2498 23.9281C75.1755 23.9307 77.5462 26.3305 77.5436 29.2866V29.292C77.5344 32.2494 75.1557 34.6412 72.2273 34.6358H72.2392H72.2405ZM81.8648 19.5806H78.0207C77.7577 19.5806 77.5449 19.7954 77.5449 20.0609V20.6025C72.7968 17.6397 66.5687 19.1271 63.635 23.9254C60.7053 28.7224 62.1761 35.0134 66.9268 37.9761C70.1697 39.9998 74.2624 40.0078 77.5145 37.9948V38.5364C77.5066 38.7992 77.7141 39.0166 77.9731 39.0219H81.8331C82.1001 39.0219 82.3141 38.8058 82.3141 38.5364L82.3511 20.0529C82.3485 19.7901 82.1331 19.5766 81.8715 19.5806H81.8662H81.8648Z" fill="white"/>
<path d="M51.4571 23.905C53.3138 23.7796 55.0991 24.6494 56.1563 26.1955C56.2964 26.4076 56.5765 26.4756 56.7919 26.3462L60.1287 24.4066C60.3639 24.2692 60.4419 23.9624 60.3031 23.7276C60.3031 23.7276 60.3031 23.7249 60.2991 23.7223C57.269 18.9867 51.0131 17.63 46.3271 20.6928C41.6398 23.757 40.2959 30.0786 43.33 34.8129C46.3615 39.5458 52.6174 40.9038 57.3047 37.841C58.5032 37.0567 59.5234 36.0228 60.2991 34.8129C60.4485 34.5928 60.3903 34.2953 60.1749 34.1459C60.1604 34.1353 60.1472 34.1286 60.134 34.1219L56.8091 32.1716C56.5897 32.0423 56.3069 32.1063 56.1669 32.3197C54.4793 34.7302 51.1796 35.3025 48.797 33.5963C46.4104 31.8915 45.8474 28.5566 47.535 26.1488C48.4521 24.8415 49.9004 24.0184 51.4849 23.9064H51.4558L51.4571 23.905Z" fill="white"/>
<path d="M26.8284 34.0835C29.4965 35.2881 32.6284 34.0795 33.8191 31.3836C35.0124 28.685 33.8151 25.5234 31.1444 24.3175C28.4763 23.113 25.3471 24.3215 24.1551 27.0175C22.9618 29.7135 24.1577 32.8776 26.8258 34.0835H26.8284ZM33.1147 19.8701C38.2156 22.1658 40.5044 28.2021 38.2315 33.3525C35.9599 38.503 29.9855 40.8174 24.8872 38.5203C19.7902 36.2259 17.5001 30.187 19.7704 25.0392C19.7744 25.0339 19.777 25.0259 19.781 25.0179C22.0804 19.9048 28.0244 17.6103 33.1134 19.8687" fill="white"/>
<path d="M91.0191 9.875H87.1749C86.9119 9.875 86.7005 10.0898 86.7005 10.3579V10.3619L86.6397 38.5714C86.637 38.8369 86.8485 39.0556 87.1128 39.0596H90.9609C91.2239 39.0623 91.4393 38.8489 91.4406 38.5821V38.5781L91.5001 10.3672C91.508 10.1044 91.3058 9.883 91.0468 9.875H91.0177H91.0191Z" fill="white"/>
<path d="M36.8476 11.4434C34.539 10.3936 32.0467 9.81461 29.516 9.74258C29.2557 9.73191 29.0337 9.94134 29.0244 10.2055V14.118C29.0218 14.3781 29.224 14.5929 29.4856 14.6036C33.2492 14.7383 36.8185 16.3524 39.4245 19.1044C39.6069 19.2831 39.9029 19.2831 40.0892 19.1044L42.9555 16.4991C43.1431 16.3124 43.1484 16.0042 42.9621 15.8095L42.9555 15.8028C41.2177 13.9619 39.1443 12.4812 36.8463 11.4421" fill="white"/>
<path d="M3.50001 30.1544C3.49208 34.9701 7.34684 38.8799 12.1134 38.8893H17.7231C17.9861 38.8893 18.1975 38.6745 18.1975 38.4091V34.5139C18.1936 34.2497 17.9834 34.0323 17.7231 34.027H13.3754C10.862 34.027 8.29699 31.9593 8.30227 29.4234L8.34324 10.1809C8.34324 9.91142 8.12916 9.69531 7.86222 9.69531H4.03389C3.77224 9.69531 3.55948 9.91008 3.55948 10.1755L3.50001 30.1544Z" fill="white"/>
<path d="M40.5748 3.00669C37.0993 1.4246 33.3424 0.570854 29.5339 0.500153C29.2709 0.493483 29.0542 0.705585 29.0449 0.971045V4.87425C29.0489 5.13971 29.2564 5.35314 29.518 5.36248C35.8558 5.51856 41.8686 8.24386 46.2004 12.9248C46.3748 13.1195 46.6748 13.1342 46.8677 12.9568L49.7406 10.3662C49.9336 10.1955 49.956 9.89932 49.7869 9.70189C49.7829 9.69656 49.7776 9.68989 49.771 9.68455C47.1888 6.85119 44.0609 4.57811 40.5748 3.00802" fill="white"/>
</g>
<defs>
<clipPath id="clip0_1546_35163">
<rect width="92" height="39" fill="white"/>
</clipPath>
</defs>
</svg>
