<svg width="24" height="25" viewBox="0 0 24 25" fill="none" xmlns="http://www.w3.org/2000/svg">
<path d="M18 2.5H6C5.20436 2.5 4.44129 2.81607 3.87868 3.37868C3.31608 3.94129 3 4.70435 3 5.5V20.3C2.99927 20.638 3.08423 20.9707 3.24694 21.267C3.40966 21.5633 3.64482 21.8136 3.93046 21.9943C4.2161 22.1751 4.5429 22.2805 4.88033 22.3008C5.21776 22.321 5.55482 22.2554 5.86 22.11C6.1 21.99 6.31 21.86 6.53 21.73C6.95312 21.4123 7.47107 21.2467 8 21.26C8.53201 21.2468 9.05309 21.4123 9.48 21.73C10.2184 22.2447 11.1 22.514 12 22.5C12.9001 22.5147 13.7819 22.2453 14.52 21.73C14.9466 21.4116 15.4679 21.246 16 21.26C16.5292 21.2451 17.0476 21.4109 17.47 21.73C17.6866 21.8651 17.9103 21.9886 18.14 22.1C18.4444 22.245 18.7806 22.3107 19.1172 22.2909C19.4538 22.2712 19.7799 22.1666 20.0653 21.987C20.3507 21.8074 20.586 21.5586 20.7494 21.2636C20.9129 20.9687 20.9991 20.6372 21 20.3V5.5C21 4.70435 20.6839 3.94129 20.1213 3.37868C19.5587 2.81607 18.7957 2.5 18 2.5ZM12 16.5H8C7.73479 16.5 7.48043 16.3946 7.2929 16.2071C7.10536 16.0196 7 15.7652 7 15.5C7 15.2348 7.10536 14.9804 7.2929 14.7929C7.48043 14.6054 7.73479 14.5 8 14.5H12C12.2652 14.5 12.5196 14.6054 12.7071 14.7929C12.8946 14.9804 13 15.2348 13 15.5C13 15.7652 12.8946 16.0196 12.7071 16.2071C12.5196 16.3946 12.2652 16.5 12 16.5ZM16 12.5H8C7.73479 12.5 7.48043 12.3946 7.2929 12.2071C7.10536 12.0196 7 11.7652 7 11.5C7 11.2348 7.10536 10.9804 7.2929 10.7929C7.48043 10.6054 7.73479 10.5 8 10.5H16C16.2652 10.5 16.5196 10.6054 16.7071 10.7929C16.8946 10.9804 17 11.2348 17 11.5C17 11.7652 16.8946 12.0196 16.7071 12.2071C16.5196 12.3946 16.2652 12.5 16 12.5ZM16 8.5H8C7.73479 8.5 7.48043 8.39464 7.2929 8.20711C7.10536 8.01957 7 7.76522 7 7.5C7 7.23478 7.10536 6.98043 7.2929 6.79289C7.48043 6.60536 7.73479 6.5 8 6.5H16C16.2652 6.5 16.5196 6.60536 16.7071 6.79289C16.8946 6.98043 17 7.23478 17 7.5C17 7.76522 16.8946 8.01957 16.7071 8.20711C16.5196 8.39464 16.2652 8.5 16 8.5Z" fill="white"/>
</svg>
