<svg width="16" height="17" viewBox="0 0 16 17" fill="none" xmlns="http://www.w3.org/2000/svg">
<g clip-path="url(#clip0_755_15079)">
<path d="M0.666504 13.833V9.83301H4.6665" fill="#F4364C"/>
<path d="M0.666504 13.833V9.83301H4.6665" stroke="#F4364C" stroke-width="2" stroke-linecap="round" stroke-linejoin="round"/>
<path d="M15.3335 3.16699V7.16699H11.3335" fill="#F4364C"/>
<path d="M15.3335 3.16699V7.16699H11.3335" stroke="#F4364C" stroke-width="2" stroke-linecap="round" stroke-linejoin="round"/>
<path d="M2.33984 6.50038C2.67795 5.5449 3.25259 4.69064 4.01015 4.01732C4.7677 3.344 5.68348 2.87355 6.67203 2.64988C7.66058 2.42621 8.68967 2.4566 9.6633 2.73823C10.6369 3.01985 11.5233 3.54352 12.2398 4.26038L15.3332 7.16704M0.666504 9.83371L3.75984 12.7404C4.47634 13.4572 5.36275 13.9809 6.33638 14.2625C7.31 14.5441 8.3391 14.5745 9.32765 14.3509C10.3162 14.1272 11.232 13.6568 11.9895 12.9834C12.7471 12.3101 13.3217 11.4559 13.6598 10.5004" stroke="#F4364C" stroke-width="1.5" stroke-linecap="round" stroke-linejoin="round"/>
</g>
<defs>
<clipPath id="clip0_755_15079">
<rect width="16" height="16" fill="white" transform="translate(0 0.5)"/>
</clipPath>
</defs>
</svg>
