<svg width="20" height="21" viewBox="0 0 20 21" fill="none" xmlns="http://www.w3.org/2000/svg">
<g clip-path="url(#clip0_1618_13970)">
<path d="M18.75 4.25H5.625L5 1.5C4.875 0.875 4.375 0.5 3.75 0.5H1.25C0.56 0.5 0 1.06 0 1.75C0 2.44 0.56 3 1.25 3H2.75L5 13.25C5.125 13.875 5.625 14.25 6.25 14.25H16.25C16.75 14.25 17.25 13.875 17.375 13.375L19.875 5.875C20.125 5.25 19.75 4.25 18.75 4.25Z" fill="white"/>
<path d="M6.25 20.5C7.63071 20.5 8.75 19.3807 8.75 18C8.75 16.6193 7.63071 15.5 6.25 15.5C4.86929 15.5 3.75 16.6193 3.75 18C3.75 19.3807 4.86929 20.5 6.25 20.5Z" fill="white"/>
<path d="M16.25 20.5C17.6307 20.5 18.75 19.3807 18.75 18C18.75 16.6193 17.6307 15.5 16.25 15.5C14.8693 15.5 13.75 16.6193 13.75 18C13.75 19.3807 14.8693 20.5 16.25 20.5Z" fill="white"/>
</g>
<defs>
<clipPath id="clip0_1618_13970">
<rect width="20" height="20" fill="white" transform="translate(0 0.5)"/>
</clipPath>
</defs>
</svg>
