<svg width="136" height="108" viewBox="0 0 136 108" fill="none" xmlns="http://www.w3.org/2000/svg">
    <g clip-path="url(#clip0_2102_6289)">
        <path d="M90.5765 90.3359V97.312C90.5765 102.605 86.2375 106.757 81.1317 106.757H46.0269C40.734 106.757 36.582 102.418 36.582 97.312V90.3359H90.5765Z" fill="#37AD68"/>
        <path d="M111.855 88.1406C114.492 88.1406 116.568 90.2166 116.568 92.8537C116.568 95.4907 114.492 97.5667 111.855 97.5667C109.218 97.5667 107.142 95.4907 107.142 92.8537C107.142 90.2166 109.218 88.1406 111.855 88.1406Z" fill="#FFEA2E"/>
        <path d="M122.671 34.1041C122.858 35.8061 121.53 37.321 119.847 37.321C118.332 37.321 117.21 36.1801 117.023 34.8709C115.882 26.1929 109.093 19.3852 100.415 18.263C99.087 18.076 97.9648 16.9351 97.9648 15.4389C97.9648 13.737 99.4798 12.4091 101.182 12.6148C112.515 13.9427 121.381 22.8077 122.708 34.1415L122.671 34.1041Z" fill="#FFEA2E"/>
        <path d="M134.171 34.0982C134.358 35.8002 133.03 37.1281 131.347 37.1281C129.832 37.1281 128.71 35.9872 128.523 34.491C127.195 19.772 115.506 8.0642 100.581 6.73631C99.0665 6.54929 97.9443 5.40843 97.9443 3.91222C97.9443 2.21028 99.2722 0.901099 100.974 1.08813C118.723 2.41601 132.881 16.5739 134.19 34.1169L134.171 34.0982Z" fill="#FFEA2E"/>
        <path d="M110.961 33.705C111.522 35.594 110.026 37.2959 108.324 37.2959C106.996 37.2959 105.874 36.5478 105.687 35.2199C104.939 32.5828 102.863 30.5068 100.394 29.9271C99.2535 29.553 98.3184 28.4122 98.3184 27.29C98.3184 25.401 100.02 24.0732 101.909 24.6529C106.061 25.5881 109.652 29.179 110.98 33.705H110.961Z" fill="#FFEA2E"/>
        <path d="M36.3956 4.27344C38.2846 4.27344 39.9865 5.78835 39.9865 7.86434C39.9865 9.94033 38.4716 11.4552 36.3956 11.4552C34.5066 11.4552 32.8047 9.94033 32.8047 7.86434C32.8047 5.78835 34.3196 4.27344 36.3956 4.27344Z" fill="#FFEA2E"/>
        <path d="M63.5694 95.0703C65.4584 95.0703 67.1603 96.5852 67.1603 98.6612C67.1603 100.55 65.6454 102.252 63.5694 102.252C61.6805 102.252 59.9785 100.737 59.9785 98.6612C59.9785 96.5852 61.6805 95.0703 63.5694 95.0703Z" fill="#156D3A"/>
        <path d="M90.577 25.5913V28.9951H36.3955V25.5913C36.3955 20.2984 40.7345 16.1465 45.8403 16.1465H80.9451C86.425 15.9594 90.577 20.2984 90.577 25.5913Z" fill="#37AD68"/>
        <path d="M90.577 90.3368H36.3955V28.9922H90.577V90.3368Z" fill="#F1FAFF"/>
        <path d="M63.5695 103.371C60.9324 103.371 58.8564 101.295 58.8564 98.6584C58.8564 96.0213 60.9324 93.9453 63.5695 93.9453C66.2066 93.9453 68.2826 96.0213 68.2826 98.6584C68.2826 101.295 66.2066 103.371 63.5695 103.371ZM63.5695 96.1896C62.2416 96.1896 61.1195 97.3305 61.1195 98.6397C61.1195 99.9489 62.2603 101.09 63.5695 101.09C64.8787 101.09 66.0195 99.9489 66.0195 98.6397C65.8325 97.3118 64.8787 96.1896 63.5695 96.1896Z" fill="#156D3A"/>
        <path d="M67.1615 24.2817H59.9797C59.4186 24.2817 58.8389 23.7206 58.8389 23.1409C58.8389 22.5611 59.3999 22 59.9797 22H67.1615C67.7226 22 68.3024 22.5611 68.3024 23.1409C68.3024 23.7206 67.7413 24.2817 67.1615 24.2817Z" fill="#156D3A"/>
        <path d="M90.5762 30.1333H36.3948C35.8337 30.1333 35.2539 29.5722 35.2539 28.9924C35.2539 28.4126 35.815 27.8516 36.3948 27.8516H90.5762C91.1373 27.8516 91.7171 28.4126 91.7171 28.9924C91.9041 29.5535 91.343 30.1333 90.5762 30.1333Z" fill="#156D3A"/>
        <path d="M90.5762 91.477H36.3948C35.8337 91.477 35.2539 90.9159 35.2539 90.3362C35.2539 89.7564 35.815 89.1953 36.3948 89.1953H90.5762C91.1373 89.1953 91.7171 89.7564 91.7171 90.3362C91.9041 90.8972 91.343 91.477 90.5762 91.477Z" fill="#156D3A"/>
        <path d="M90.5757 63.1635C90.0147 63.1635 89.4349 62.6024 89.4349 62.0226V25.5899C89.4349 21.0639 85.6569 17.286 81.1309 17.286H46.0261C41.5001 17.286 37.7221 21.0639 37.7221 25.5899V42.0108C37.7221 42.5719 37.1611 43.1517 36.5813 43.1517C36.0015 43.1517 35.4404 42.5906 35.4404 42.0108V25.5899C35.4404 19.736 40.1535 14.8359 46.1944 14.8359H81.2992C87.1532 14.8359 92.0532 19.549 92.0532 25.5899V62.0226C91.8662 62.5837 91.3051 63.1635 90.5383 63.1635H90.5757Z" fill="#156D3A"/>
        <path d="M36.3948 91.7265C35.8337 91.7265 35.2539 91.1655 35.2539 90.5857V61.1409C35.2539 60.5798 35.815 60 36.3948 60C36.9745 60 37.5356 60.5611 37.5356 61.1409V90.5857C37.5356 91.1468 37.1616 91.7265 36.3948 91.7265Z" fill="#156D3A"/>
        <path d="M81.1313 108.091H46.0265C40.1725 108.091 35.2725 103.378 35.2725 97.3373V79.7756C35.2725 79.2145 35.8335 78.6347 36.4133 78.6347C36.9931 78.6347 37.5542 79.1958 37.5542 79.7756V97.3373C37.5542 101.863 41.3321 105.641 45.8581 105.641H80.9629C85.489 105.641 89.2669 101.863 89.2669 97.3373V76.2034C89.2669 75.6423 89.828 75.0625 90.4078 75.0625C90.9875 75.0625 91.5486 75.6236 91.5486 76.2034V97.3373C91.9227 103.191 87.0226 108.091 81.1687 108.091H81.1313Z" fill="#156D3A"/>
        <path d="M108.12 38.4368C106.231 38.4368 104.716 37.2959 104.155 35.6127C103.594 33.3496 101.892 31.6477 99.6288 31.0866C97.9268 30.7126 96.8047 29.0106 96.8047 27.3087C96.8047 25.0457 98.6936 23.3438 100.77 23.3438C101.144 23.3438 101.518 23.3438 101.91 23.5308C106.811 24.8587 110.776 28.8236 112.103 33.7237C112.477 34.8646 112.103 36.1737 111.355 37.1276C110.607 37.8757 109.466 38.4555 108.138 38.4555L108.12 38.4368ZM100.77 25.401C99.8345 25.401 99.0677 26.1491 99.0677 27.103C99.0677 27.8511 99.6288 28.4309 100.209 28.6179C103.238 29.366 105.501 31.8347 106.437 34.8459C106.624 35.594 107.185 35.9867 107.951 35.9867C108.513 35.9867 108.887 35.7997 109.279 35.4256C109.653 35.0516 109.653 34.4905 109.466 33.9107C108.325 29.7587 105.127 26.5419 100.975 25.4197C101.162 25.4197 100.975 25.4197 100.788 25.4197L100.77 25.401Z" fill="#156D3A"/>
        <path d="M119.828 38.4367C117.752 38.4367 116.05 36.9218 115.676 35.0329C114.535 26.9159 108.307 20.5009 100.19 19.5471C98.114 19.3601 96.7861 17.6581 96.7861 15.5821C96.7861 13.3191 98.6751 11.6172 100.751 11.6172H101.312C113.02 13.1321 122.259 22.3712 123.774 34.079C123.961 35.2199 123.587 36.342 122.839 37.2959C122.091 37.857 120.95 38.4367 119.809 38.4367H119.828ZM100.77 13.7119C99.8347 13.7119 99.0678 14.46 99.0678 15.4138C99.0678 16.1619 99.6289 16.9287 100.583 17.1158C109.635 18.2566 117.004 25.4197 118.145 34.6775C118.332 35.4256 118.893 36.1924 119.846 36.1924C120.408 36.1924 120.782 36.0054 121.174 35.6313C121.548 35.2573 121.548 34.8832 121.548 34.3035C120.221 23.5495 111.73 15.2455 101.163 13.9176C101.038 13.7929 100.913 13.7306 100.788 13.7306L100.77 13.7119Z" fill="#156D3A"/>
        <path d="M131.535 38.4433C129.272 38.4433 127.57 36.9284 127.383 34.6654C126.243 20.3205 114.928 8.98674 100.583 7.86458C98.5066 7.67755 96.8047 5.97562 96.8047 3.89963C96.8047 1.63661 98.6937 -0.252354 101.144 -0.0653281C110.009 0.682776 118.313 4.4607 124.559 10.8757C130.787 17.1037 134.752 25.4076 135.5 34.2914C135.5 35.4322 135.126 36.5544 134.36 37.3212C133.611 37.8823 132.471 38.4621 131.535 38.4621V38.4433ZM100.77 2.19769C99.8345 2.19769 99.0677 2.94579 99.0677 3.89963C99.0677 4.83476 99.6288 5.41454 100.583 5.60156C107.951 6.16264 115.115 9.56652 120.407 14.8594C125.7 20.1522 128.898 27.1283 129.665 34.6841C129.665 35.6193 130.413 36.199 131.367 36.199C131.741 36.199 132.302 36.012 132.508 35.638C132.882 35.2639 132.882 34.8899 132.882 34.3101C131.741 17.1224 118.163 3.54428 100.788 2.21639C100.913 2.21639 100.913 2.21639 100.788 2.21639L100.77 2.19769Z" fill="#156D3A"/>
        <path d="M36.3947 12.3871C33.7576 12.3871 31.6816 10.3111 31.6816 7.674C31.6816 5.03693 33.7576 2.96094 36.3947 2.96094C39.0318 2.96094 41.1078 5.03693 41.1078 7.674C41.1078 10.3111 39.0318 12.3871 36.3947 12.3871ZM36.3947 5.39228C35.0668 5.39228 33.9447 6.53314 33.9447 7.84232C33.9447 9.1515 35.0855 10.2924 36.3947 10.2924C37.7039 10.2924 38.8447 9.1515 38.8447 7.84232C38.6577 6.32741 37.7039 5.39228 36.3947 5.39228Z" fill="#156D3A"/>
        <path d="M111.854 98.7078C108.637 98.7078 106 96.0708 106 92.8539C106 89.6371 108.637 87 111.854 87C115.071 87 117.708 89.6371 117.708 92.8539C117.708 96.0708 115.071 98.7078 111.854 98.7078ZM111.854 89.263C109.965 89.263 108.263 90.7779 108.263 92.8539C108.263 94.9299 109.778 96.4448 111.854 96.4448C113.93 96.4448 115.445 94.9299 115.445 92.8539C115.445 90.7779 113.743 89.263 111.854 89.263Z" fill="#156D3A"/>
        <mask id="path-22-outside-1_2102_6289" maskUnits="userSpaceOnUse" x="80" y="57" width="38" height="25" fill="black">
            <rect fill="white" x="80" y="57" width="38" height="25"/>
            <path d="M94.3852 79H90.6519V73.5922H82.4989V70.4353L90.6244 60.0039H94.3852V70.298H96.4166V73.5922H94.3852V79ZM90.6519 70.298V64.9176L86.4244 70.298H90.6519ZM112.039 79V77.8745C111.544 78.2771 110.904 78.6248 110.117 78.9176C109.33 79.1922 108.388 79.3294 107.29 79.3294C105.844 79.3294 104.517 79.0915 103.309 78.6157C102.12 78.1399 101.095 77.4719 100.235 76.6118C99.3745 75.7516 98.7065 74.7176 98.2307 73.5098C97.7549 72.302 97.517 70.9569 97.517 69.4745C97.517 68.1203 97.7457 66.8484 98.2033 65.6588C98.6791 64.4693 99.3379 63.4261 100.18 62.5294C101.04 61.6327 102.074 60.9281 103.282 60.4157C104.49 59.9033 105.825 59.6471 107.29 59.6471C108.296 59.6471 109.202 59.7477 110.007 59.949C110.831 60.1503 111.563 60.4248 112.203 60.7725C112.844 61.102 113.402 61.4954 113.878 61.9529C114.354 62.4105 114.756 62.8954 115.086 63.4078L112.121 65.6039C111.901 65.3111 111.645 65.0183 111.352 64.7255C111.059 64.4327 110.712 64.1765 110.309 63.9569C109.925 63.719 109.486 63.5359 108.991 63.4078C108.497 63.2614 107.93 63.1882 107.29 63.1882C106.429 63.1882 105.642 63.3438 104.929 63.6549C104.215 63.966 103.602 64.3961 103.09 64.9451C102.595 65.4941 102.202 66.1529 101.909 66.9216C101.635 67.6902 101.497 68.5412 101.497 69.4745C101.497 70.4261 101.644 71.2954 101.937 72.0824C102.248 72.8693 102.669 73.5373 103.199 74.0863C103.73 74.6353 104.352 75.0654 105.066 75.3765C105.798 75.6693 106.594 75.8157 107.454 75.8157C108.552 75.8157 109.476 75.6418 110.227 75.2941C110.995 74.9464 111.581 74.5621 111.984 74.1412V71.9725H108.882V68.7882H115.717V79H112.039Z"/>
        </mask>
        <path d="M94.3852 79H90.6519V73.5922H82.4989V70.4353L90.6244 60.0039H94.3852V70.298H96.4166V73.5922H94.3852V79ZM90.6519 70.298V64.9176L86.4244 70.298H90.6519ZM112.039 79V77.8745C111.544 78.2771 110.904 78.6248 110.117 78.9176C109.33 79.1922 108.388 79.3294 107.29 79.3294C105.844 79.3294 104.517 79.0915 103.309 78.6157C102.12 78.1399 101.095 77.4719 100.235 76.6118C99.3745 75.7516 98.7065 74.7176 98.2307 73.5098C97.7549 72.302 97.517 70.9569 97.517 69.4745C97.517 68.1203 97.7457 66.8484 98.2033 65.6588C98.6791 64.4693 99.3379 63.4261 100.18 62.5294C101.04 61.6327 102.074 60.9281 103.282 60.4157C104.49 59.9033 105.825 59.6471 107.29 59.6471C108.296 59.6471 109.202 59.7477 110.007 59.949C110.831 60.1503 111.563 60.4248 112.203 60.7725C112.844 61.102 113.402 61.4954 113.878 61.9529C114.354 62.4105 114.756 62.8954 115.086 63.4078L112.121 65.6039C111.901 65.3111 111.645 65.0183 111.352 64.7255C111.059 64.4327 110.712 64.1765 110.309 63.9569C109.925 63.719 109.486 63.5359 108.991 63.4078C108.497 63.2614 107.93 63.1882 107.29 63.1882C106.429 63.1882 105.642 63.3438 104.929 63.6549C104.215 63.966 103.602 64.3961 103.09 64.9451C102.595 65.4941 102.202 66.1529 101.909 66.9216C101.635 67.6902 101.497 68.5412 101.497 69.4745C101.497 70.4261 101.644 71.2954 101.937 72.0824C102.248 72.8693 102.669 73.5373 103.199 74.0863C103.73 74.6353 104.352 75.0654 105.066 75.3765C105.798 75.6693 106.594 75.8157 107.454 75.8157C108.552 75.8157 109.476 75.6418 110.227 75.2941C110.995 74.9464 111.581 74.5621 111.984 74.1412V71.9725H108.882V68.7882H115.717V79H112.039Z" fill="#FFEA2E"/>
        <path d="M94.3852 79V80.7073H96.0925V79H94.3852ZM90.6519 79H88.9446V80.7073H90.6519V79ZM90.6519 73.5922H92.3592V71.8848H90.6519V73.5922ZM82.4989 73.5922H80.7916V75.2995H82.4989V73.5922ZM82.4989 70.4353L81.152 69.3861L80.7916 69.8488V70.4353H82.4989ZM90.6244 60.0039V58.2966H89.7902L89.2775 58.9547L90.6244 60.0039ZM94.3852 60.0039H96.0925V58.2966H94.3852V60.0039ZM94.3852 70.298H92.6779V72.0054H94.3852V70.298ZM96.4166 70.298H98.1239V68.5907H96.4166V70.298ZM96.4166 73.5922V75.2995H98.1239V73.5922H96.4166ZM94.3852 73.5922V71.8848H92.6779V73.5922H94.3852ZM90.6519 70.298V72.0054H92.3592V70.298H90.6519ZM90.6519 64.9176H92.3592V59.9812L89.3094 63.8628L90.6519 64.9176ZM86.4244 70.298L85.0819 69.2432L82.9117 72.0054H86.4244V70.298ZM94.3852 77.2927H90.6519V80.7073H94.3852V77.2927ZM92.3592 79V73.5922H88.9446V79H92.3592ZM90.6519 71.8848H82.4989V75.2995H90.6519V71.8848ZM84.2063 73.5922V70.4353H80.7916V73.5922H84.2063ZM83.8459 71.4845L91.9713 61.0531L89.2775 58.9547L81.152 69.3861L83.8459 71.4845ZM90.6244 61.7112H94.3852V58.2966H90.6244V61.7112ZM92.6779 60.0039V70.298H96.0925V60.0039H92.6779ZM94.3852 72.0054H96.4166V68.5907H94.3852V72.0054ZM94.7093 70.298V73.5922H98.1239V70.298H94.7093ZM96.4166 71.8848H94.3852V75.2995H96.4166V71.8848ZM92.6779 73.5922V79H96.0925V73.5922H92.6779ZM92.3592 70.298V64.9176H88.9446V70.298H92.3592ZM89.3094 63.8628L85.0819 69.2432L87.7669 71.3529L91.9944 65.9725L89.3094 63.8628ZM86.4244 72.0054H90.6519V68.5907H86.4244V72.0054ZM112.039 79H110.331V80.7073H112.039V79ZM112.039 77.8745H113.746V74.281L110.96 76.5509L112.039 77.8745ZM110.117 78.9176L110.679 80.5297L110.696 80.5239L110.712 80.5178L110.117 78.9176ZM103.309 78.6157L102.675 80.2009L102.683 80.2042L103.309 78.6157ZM100.235 76.6118L101.442 75.4045L100.235 76.6118ZM98.2307 73.5098L96.6422 74.1356L98.2307 73.5098ZM98.2033 65.6588L96.6181 65.0247L96.6138 65.0353L96.6097 65.0459L98.2033 65.6588ZM100.18 62.5294L98.9476 61.3476L98.9412 61.3542L98.935 61.3609L100.18 62.5294ZM110.007 59.949L109.593 61.6054L109.602 61.6075L110.007 59.949ZM112.203 60.7725L111.389 62.273L111.405 62.2821L111.422 62.2908L112.203 60.7725ZM113.878 61.9529L115.061 60.7222V60.7222L113.878 61.9529ZM115.086 63.4078L116.102 64.7798L117.386 63.8287L116.522 62.4846L115.086 63.4078ZM112.121 65.6039L110.755 66.6283L111.773 67.9861L113.137 66.9758L112.121 65.6039ZM110.309 63.9569L109.41 65.4085L109.45 65.4332L109.492 65.4557L110.309 63.9569ZM108.991 63.4078L108.506 65.0448L108.535 65.0532L108.563 65.0605L108.991 63.4078ZM104.929 63.6549L105.611 65.22L105.611 65.22L104.929 63.6549ZM103.09 64.9451L101.841 63.7802L101.831 63.7915L101.82 63.803L103.09 64.9451ZM101.909 66.9216L100.314 66.3138L100.307 66.3305L100.301 66.3473L101.909 66.9216ZM101.937 72.0824L100.336 72.6778L100.342 72.694L100.349 72.7101L101.937 72.0824ZM103.199 74.0863L104.427 72.8997L103.199 74.0863ZM105.066 75.3765L104.384 76.9416L104.408 76.952L104.432 76.9617L105.066 75.3765ZM110.227 75.2941L109.523 73.7386L109.516 73.7418L109.509 73.7451L110.227 75.2941ZM111.984 74.1412L113.217 75.3213L113.691 74.8263V74.1412H111.984ZM111.984 71.9725H113.691V70.2652H111.984V71.9725ZM108.882 71.9725H107.174V73.6799H108.882V71.9725ZM108.882 68.7882V67.0809H107.174V68.7882H108.882ZM115.717 68.7882H117.424V67.0809H115.717V68.7882ZM115.717 79V80.7073H117.424V79H115.717ZM113.746 79V77.8745H110.331V79H113.746ZM110.96 76.5509C110.648 76.8048 110.186 77.0704 109.522 77.3175L110.712 80.5178C111.622 80.1793 112.44 79.7494 113.117 79.1981L110.96 76.5509ZM109.555 77.3056C108.996 77.5006 108.253 77.6221 107.29 77.6221V81.0367C108.522 81.0367 109.665 80.8837 110.679 80.5297L109.555 77.3056ZM107.29 77.6221C106.034 77.6221 104.922 77.4161 103.935 77.0272L102.683 80.2042C104.112 80.767 105.654 81.0367 107.29 81.0367V77.6221ZM103.943 77.0305C102.957 76.6359 102.13 76.0925 101.442 75.4045L99.0274 77.819C100.06 78.8513 101.282 79.6439 102.675 80.2009L103.943 77.0305ZM101.442 75.4045C100.758 74.7209 100.215 73.8888 99.8192 72.884L96.6422 74.1356C97.198 75.5465 97.9907 76.7823 99.0274 77.819L101.442 75.4045ZM99.8192 72.884C99.4322 71.9017 99.2243 70.7728 99.2243 69.4745H95.8097C95.8097 71.141 96.0776 72.7022 96.6422 74.1356L99.8192 72.884ZM99.2243 69.4745C99.2243 68.3166 99.4191 67.2537 99.7968 66.2717L96.6097 65.0459C96.0724 66.443 95.8097 67.924 95.8097 69.4745H99.2243ZM99.7885 66.2929C100.188 65.2928 100.735 64.4329 101.424 63.698L98.935 61.3609C97.9413 62.4194 97.1697 63.6457 96.6181 65.0247L99.7885 66.2929ZM101.412 63.7113C102.103 62.9907 102.941 62.4146 103.948 61.9874L102.615 58.844C101.206 59.4416 99.9767 60.2747 98.9476 61.3476L101.412 63.7113ZM103.948 61.9874C104.922 61.5743 106.028 61.3544 107.29 61.3544V57.9397C105.623 57.9397 104.057 58.2322 102.615 58.844L103.948 61.9874ZM107.29 61.3544C108.185 61.3544 108.948 61.4442 109.593 61.6054L110.421 58.2927C109.456 58.0512 108.407 57.9397 107.29 57.9397V61.3544ZM109.602 61.6075C110.305 61.7795 110.896 62.0057 111.389 62.273L113.018 59.2721C112.229 58.844 111.356 58.5212 110.413 58.2905L109.602 61.6075ZM111.422 62.2908C111.929 62.5513 112.348 62.851 112.694 63.1836L115.061 60.7222C114.455 60.1399 113.759 59.6526 112.984 59.2543L111.422 62.2908ZM112.694 63.1836C113.082 63.5565 113.398 63.9396 113.649 64.3311L116.522 62.4846C116.115 61.8513 115.625 61.2644 115.061 60.7222L112.694 63.1836ZM114.069 62.0359L111.105 64.232L113.137 66.9758L116.102 64.7798L114.069 62.0359ZM113.487 64.5795C113.213 64.2143 112.902 63.8609 112.56 63.5182L110.145 65.9327C110.388 66.1757 110.59 66.4079 110.755 66.6283L113.487 64.5795ZM112.56 63.5182C112.14 63.0985 111.657 62.7474 111.127 62.458L109.492 65.4557C109.766 65.6055 109.979 65.7669 110.145 65.9327L112.56 63.5182ZM111.208 62.5052C110.66 62.1662 110.059 61.9208 109.42 61.7552L108.563 65.0605C108.912 65.1511 109.189 65.2717 109.41 65.4085L111.208 62.5052ZM109.477 61.7709C108.792 61.5681 108.056 61.4809 107.29 61.4809V64.8955C107.804 64.8955 108.203 64.9548 108.506 65.0448L109.477 61.7709ZM107.29 61.4809C106.219 61.4809 105.197 61.6755 104.247 62.0898L105.611 65.22C106.088 65.0121 106.639 64.8955 107.29 64.8955V61.4809ZM104.247 62.0898C103.327 62.4907 102.519 63.0542 101.841 63.7802L104.338 66.11C104.685 65.738 105.103 65.4413 105.611 65.22L104.247 62.0898ZM101.82 63.803C101.17 64.5252 100.673 65.3707 100.314 66.3138L103.505 67.5294C103.731 66.9352 104.02 66.463 104.359 66.0872L101.82 63.803ZM100.301 66.3473C99.9523 67.3246 99.7901 68.3732 99.7901 69.4745H103.205C103.205 68.7092 103.317 68.0557 103.517 67.4958L100.301 66.3473ZM99.7901 69.4745C99.7901 70.6026 99.964 71.6767 100.336 72.6778L103.537 71.487C103.324 70.9142 103.205 70.2497 103.205 69.4745H99.7901ZM100.349 72.7101C100.733 73.6826 101.27 74.5464 101.972 75.2729L104.427 72.8997C104.068 72.5281 103.762 72.056 103.524 71.4546L100.349 72.7101ZM101.972 75.2729C102.661 75.9857 103.469 76.543 104.384 76.9416L105.748 73.8114C105.235 73.5877 104.799 73.2849 104.427 72.8997L101.972 75.2729ZM104.432 76.9617C105.383 77.3422 106.397 77.523 107.454 77.523V74.1084C106.791 74.1084 106.213 73.9964 105.7 73.7913L104.432 76.9617ZM107.454 77.523C108.723 77.523 109.908 77.3234 110.945 76.8432L109.509 73.7451C109.045 73.9602 108.382 74.1084 107.454 74.1084V77.523ZM110.93 76.8497C111.816 76.4489 112.612 75.9541 113.217 75.3213L110.75 72.961C110.55 73.1701 110.174 73.4439 109.523 73.7386L110.93 76.8497ZM113.691 74.1412V71.9725H110.276V74.1412H113.691ZM111.984 70.2652H108.882V73.6799H111.984V70.2652ZM110.589 71.9725V68.7882H107.174V71.9725H110.589ZM108.882 70.4956H115.717V67.0809H108.882V70.4956ZM114.01 68.7882V79H117.424V68.7882H114.01ZM115.717 77.2927H112.039V80.7073H115.717V77.2927Z" fill="#156D3A" mask="url(#path-22-outside-1_2102_6289)"/>
        <path d="M25.75 55.5H27.25V56H25.75H24.75V57V58.5H24.25V57V56H23.25H21.75V55.5H23.25H24.25V54.5V53H24.75V54.5V55.5H25.75ZM39.5 47.25H24.5C19.8115 47.25 16 51.0615 16 55.75C16 60.4385 19.8115 64.25 24.5 64.25C27.3547 64.25 29.981 62.8166 31.5424 60.5H32.4563C34.0178 62.8166 36.6441 64.25 39.4988 64.25C44.1873 64.25 47.9988 60.4385 47.9988 55.75C47.9988 51.0617 44.1888 47.25 39.5 47.25ZM38.25 58.5C38.1123 58.5 38 58.3877 38 58.25C38 58.1123 38.1123 58 38.25 58C38.3877 58 38.5 58.1123 38.5 58.25C38.5 58.3877 38.3877 58.5 38.25 58.5ZM42 54.75C41.8623 54.75 41.75 54.6377 41.75 54.5C41.75 54.3623 41.8623 54.25 42 54.25C42.1377 54.25 42.25 54.3623 42.25 54.5C42.25 54.6377 42.1377 54.75 42 54.75Z" fill="white" stroke="#156D3A" stroke-width="2"/>
        <circle cx="40.5" cy="56" r="4.5" fill="white"/>
        <circle cx="41.3" cy="54.3" r="1.3" fill="#156D3A"/>
        <circle cx="38.3" cy="58.3" r="1.3" fill="#156D3A"/>
        <path d="M73 45H55C54.4696 45 53.9609 45.2107 53.5858 45.5858C53.2107 45.9609 53 46.4696 53 47V69C53 69.5304 53.2107 70.0391 53.5858 70.4142C53.9609 70.7893 54.4696 71 55 71H73C73.5304 71 74.0391 70.7893 74.4142 70.4142C74.7893 70.0391 75 69.5304 75 69V47C75 46.4696 74.7893 45.9609 74.4142 45.5858C74.0391 45.2107 73.5304 45 73 45ZM67.1132 58L62 61.1958V54.8042L67.1132 58Z" fill="#37AD68" stroke="#156D3A" stroke-width="2"/>
    </g>
    <defs>
        <clipPath id="clip0_2102_6289">
            <rect width="136" height="108" fill="white"/>
        </clipPath>
    </defs>
</svg>
