<svg width="111" height="110" viewBox="0 0 111 110" fill="none" xmlns="http://www.w3.org/2000/svg">
    <g clip-path="url(#clip0_2102_6326)">
        <path d="M66.0765 91.3438V98.3198C66.0765 103.613 61.7375 107.765 56.6317 107.765H21.5269C16.234 107.765 12.082 103.426 12.082 98.3198V91.3438H66.0765Z" fill="#37AD68"/>
        <path d="M81.5436 47.7422C84.1807 47.7422 86.2567 49.8182 86.2567 52.4552C86.2567 55.0923 84.1807 57.1683 81.5436 57.1683C78.9066 57.1683 76.8306 55.0923 76.8306 52.4552C76.8306 49.8182 78.9066 47.7422 81.5436 47.7422Z" fill="#FFEA2E"/>
        <path d="M98.1705 35.1041C98.3575 36.8061 97.0296 38.321 95.3464 38.321C93.8315 38.321 92.7093 37.1801 92.5223 35.8709C91.3815 27.1929 84.5924 20.3852 75.9144 19.263C74.5865 19.076 73.4644 17.9351 73.4644 16.4389C73.4644 14.737 74.9793 13.4091 76.6812 13.6148C88.015 14.9427 96.88 23.8077 98.2079 35.1415L98.1705 35.1041Z" fill="#FFEA2E"/>
        <path d="M109.671 35.1061C109.858 36.808 108.53 38.1359 106.847 38.1359C105.332 38.1359 104.21 36.995 104.023 35.4988C102.695 20.7798 91.0061 9.07201 76.0814 7.74413C74.5665 7.5571 73.4443 6.41624 73.4443 4.92003C73.4443 3.21809 74.7722 1.90891 76.4742 2.09594C94.2229 3.42382 108.381 17.5817 109.69 35.1248L109.671 35.1061Z" fill="#FFEA2E"/>
        <path d="M86.4618 34.7128C87.0229 36.6018 85.5267 38.3037 83.8247 38.3037C82.4969 38.3037 81.3747 37.5556 81.1877 36.2277C80.4396 33.5907 78.3636 31.5147 75.8948 30.9349C74.754 30.5608 73.8188 29.42 73.8188 28.2978C73.8188 26.4089 75.5208 25.081 77.4097 25.6607C81.5617 26.5959 85.1526 30.1868 86.4805 34.7128H86.4618Z" fill="#FFEA2E"/>
        <path d="M11.8956 5.27344C13.7846 5.27344 15.4865 6.78835 15.4865 8.86434C15.4865 10.9403 13.9716 12.4552 11.8956 12.4552C10.0066 12.4552 8.30469 10.9403 8.30469 8.86434C8.30469 6.78835 9.8196 5.27344 11.8956 5.27344Z" fill="#FFEA2E"/>
        <path d="M39.0694 96.0703C40.9584 96.0703 42.6603 97.5852 42.6603 99.6612C42.6603 101.55 41.1454 103.252 39.0694 103.252C37.1805 103.252 35.4785 101.737 35.4785 99.6612C35.4785 97.5852 37.1805 96.0703 39.0694 96.0703Z" fill="#156D3A"/>
        <path d="M66.077 26.5913V29.9951H11.8955V26.5913C11.8955 21.2984 16.2345 17.1465 21.3403 17.1465H56.4451C61.925 16.9594 66.077 21.2984 66.077 26.5913Z" fill="#37AD68"/>
        <path d="M66.077 91.3446H11.8955V30H66.077V91.3446Z" fill="#F1FAFF"/>
        <path d="M84.5737 66.0533V74.1702C84.5737 75.8721 83.2459 77.2 81.5439 77.2H55.1171L49.6373 81.9131L50.3854 77.2H46.7945C45.0925 77.2 43.7646 75.8721 43.7646 74.1702V66.0533C43.7646 64.3513 45.0925 63.0234 46.7945 63.0234H81.5252C83.0401 63.0234 84.555 64.3513 84.555 66.0533H84.5737Z" fill="#F4364C"/>
        <path d="M30.7655 69.6435V77.5734C30.7655 79.2753 29.4377 80.5845 27.7357 80.5845H24.1448L24.8929 85.2975L19.4131 80.5845H4.33876C2.63682 80.5845 1.32764 79.2566 1.32764 77.5734V69.4564C1.32764 67.7545 2.65552 66.4453 4.33876 66.4453H27.5674C29.2693 66.6323 30.7842 67.9602 30.7842 69.6622L30.7655 69.6435Z" fill="#FFEA2E"/>
        <path d="M42.4745 46.0454V54.1624C42.4745 55.8643 41.1466 57.1735 39.4634 57.1735H35.8725L36.6206 61.8866L31.1407 57.1735H4.71391C3.01197 57.1735 1.68408 55.8456 1.68408 54.1624V46.0454C1.68408 44.3435 3.01197 43.0156 4.71391 43.0156H39.4447C41.1466 43.0156 42.4558 44.3435 42.4558 46.0454H42.4745Z" fill="#FFEA2E"/>
        <path d="M39.07 104.379C36.4329 104.379 34.3569 102.303 34.3569 99.6662C34.3569 97.0291 36.4329 94.9531 39.07 94.9531C41.7071 94.9531 43.783 97.0291 43.783 99.6662C43.783 102.303 41.7071 104.379 39.07 104.379ZM39.07 97.1974C37.7421 97.1974 36.6199 98.3383 36.6199 99.6475C36.6199 100.957 37.7608 102.098 39.07 102.098C40.3792 102.098 41.52 100.957 41.52 99.6475C41.333 98.3196 40.3792 97.1974 39.07 97.1974Z" fill="#156D3A"/>
        <path d="M42.6615 25.2817H35.4797C34.9186 25.2817 34.3389 24.7206 34.3389 24.1409C34.3389 23.5611 34.8999 23 35.4797 23H42.6615C43.2226 23 43.8024 23.5611 43.8024 24.1409C43.8024 24.7206 43.2413 25.2817 42.6615 25.2817Z" fill="#156D3A"/>
        <path d="M66.0762 31.1411H11.8948C11.3337 31.1411 10.7539 30.58 10.7539 30.0002C10.7539 29.4205 11.315 28.8594 11.8948 28.8594H66.0762C66.6373 28.8594 67.2171 29.4205 67.2171 30.0002C67.4041 30.5613 66.843 31.1411 66.0762 31.1411Z" fill="#156D3A"/>
        <path d="M66.0762 92.4848H11.8948C11.3337 92.4848 10.7539 91.9238 10.7539 91.344C10.7539 90.7642 11.315 90.2031 11.8948 90.2031H66.0762C66.6373 90.2031 67.2171 90.7642 67.2171 91.344C67.4041 91.9051 66.843 92.4848 66.0762 92.4848Z" fill="#156D3A"/>
        <path d="M66.0757 64.1635C65.5147 64.1635 64.9349 63.6024 64.9349 63.0226V26.5899C64.9349 22.0639 61.1569 18.286 56.6309 18.286H21.5261C17.0001 18.286 13.2221 22.0639 13.2221 26.5899V43.0108C13.2221 43.5719 12.6611 44.1517 12.0813 44.1517C11.5015 44.1517 10.9404 43.5906 10.9404 43.0108V26.5899C10.9404 20.736 15.6535 15.8359 21.6944 15.8359H56.7992C62.6532 15.8359 67.5532 20.549 67.5532 26.5899V63.0226C67.3662 63.5837 66.8051 64.1635 66.0383 64.1635H66.0757Z" fill="#156D3A"/>
        <path d="M11.8948 67.7578C11.3337 67.7578 10.7539 67.1967 10.7539 66.6169V57.1721C10.7539 56.611 11.315 56.0312 11.8948 56.0312C12.4745 56.0312 13.0356 56.5923 13.0356 57.1721V66.6169C13.0356 67.178 12.6616 67.7578 11.8948 67.7578Z" fill="#156D3A"/>
        <path d="M56.6313 109.091H21.5265C15.6725 109.091 10.7725 104.378 10.7725 98.3373V80.7756C10.7725 80.2145 11.3335 79.6347 11.9133 79.6347C12.4931 79.6347 13.0542 80.1958 13.0542 80.7756V98.3373C13.0542 102.863 16.8321 106.641 21.3581 106.641H56.4629C60.989 106.641 64.7669 102.863 64.7669 98.3373V77.2034C64.7669 76.6423 65.328 76.0625 65.9078 76.0625C66.4875 76.0625 67.0486 76.6236 67.0486 77.2034V98.3373C67.4227 104.191 62.5226 109.091 56.6687 109.091H56.6313Z" fill="#156D3A"/>
        <path d="M83.6198 39.4446C81.7308 39.4446 80.2159 38.3037 79.6548 36.6205C79.0937 34.3575 77.3918 32.6555 75.1288 32.0944C73.4268 31.7204 72.3047 30.0185 72.3047 28.3165C72.3047 26.0535 74.1936 24.3516 76.2696 24.3516C76.6437 24.3516 77.0177 24.3516 77.4105 24.5386C82.3106 25.8665 86.2755 29.8314 87.6034 34.7315C87.9775 35.8724 87.6034 37.1816 86.8553 38.1354C86.1072 38.8835 84.9664 39.4633 83.6385 39.4633L83.6198 39.4446ZM76.2696 26.4089C75.3345 26.4089 74.5677 27.157 74.5677 28.1108C74.5677 28.8589 75.1288 29.4387 75.7086 29.6257C78.7384 30.3738 81.0014 32.8425 81.9365 35.8537C82.1236 36.6018 82.6846 36.9945 83.4514 36.9945C84.0125 36.9945 84.3866 36.8075 84.7793 36.4334C85.1534 36.0594 85.1534 35.4983 84.9664 34.9185C83.8255 30.7666 80.6273 27.5497 76.4754 26.4276C76.6624 26.4276 76.4754 26.4276 76.2883 26.4276L76.2696 26.4089Z" fill="#156D3A"/>
        <path d="M95.3277 39.4445C93.2518 39.4445 91.5498 37.9296 91.1758 36.0407C90.0349 27.9237 83.8069 21.5087 75.69 20.5549C73.614 20.3679 72.2861 18.6659 72.2861 16.59C72.2861 14.3269 74.1751 12.625 76.2511 12.625H76.8122C88.52 14.1399 97.7591 23.379 99.274 35.0868C99.461 36.2277 99.087 37.3499 98.3389 38.3037C97.5908 38.8648 96.4499 39.4445 95.309 39.4445H95.3277ZM76.2698 14.7197C75.3347 14.7197 74.5678 15.4678 74.5678 16.4216C74.5678 17.1697 75.1289 17.9365 76.0828 18.1236C85.1348 19.2644 92.5037 26.4275 93.6445 35.6853C93.8315 36.4334 94.3926 37.2002 95.3464 37.2002C95.9075 37.2002 96.2816 37.0132 96.6743 36.6392C97.0484 36.2651 97.0484 35.891 97.0484 35.3113C95.7205 24.5573 87.2295 16.2533 76.6625 14.9254C76.5379 14.8007 76.4132 14.7384 76.2885 14.7384L76.2698 14.7197Z" fill="#156D3A"/>
        <path d="M107.035 39.4433C104.772 39.4433 103.07 37.9284 102.883 35.6654C101.743 21.3205 90.4275 9.98674 76.0826 8.86458C74.0066 8.67755 72.3047 6.97562 72.3047 4.89963C72.3047 2.63661 74.1937 0.747646 76.6437 0.934672C85.5087 1.68278 93.8127 5.4607 100.059 11.8757C106.287 18.1037 110.252 26.4076 111 35.2914C111 36.4322 110.626 37.5544 109.86 38.3212C109.111 38.8823 107.971 39.4621 107.035 39.4621V39.4433ZM76.2696 3.19769C75.3345 3.19769 74.5677 3.94579 74.5677 4.89963C74.5677 5.83476 75.1288 6.41454 76.0826 6.60156C83.4514 7.16264 90.6145 10.5665 95.9074 15.8594C101.2 21.1522 104.398 28.1283 105.165 35.6841C105.165 36.6193 105.913 37.199 106.867 37.199C107.241 37.199 107.802 37.012 108.008 36.638C108.382 36.2639 108.382 35.8899 108.382 35.3101C107.241 18.1224 93.6631 4.54428 76.2883 3.21639C76.413 3.21639 76.413 3.21639 76.2883 3.21639L76.2696 3.19769Z" fill="#156D3A"/>
        <path d="M11.8947 13.3871C9.25763 13.3871 7.18164 11.3111 7.18164 8.674C7.18164 6.03693 9.25763 3.96094 11.8947 3.96094C14.5318 3.96094 16.6078 6.03693 16.6078 8.674C16.6078 11.3111 14.5318 13.3871 11.8947 13.3871ZM11.8947 6.39228C10.5668 6.39228 9.44466 7.53314 9.44466 8.84232C9.44466 10.1515 10.5855 11.2924 11.8947 11.2924C13.2039 11.2924 14.3447 10.1515 14.3447 8.84232C14.1577 7.32741 13.2039 6.39228 11.8947 6.39228Z" fill="#156D3A"/>
        <path d="M81.5429 58.3094C78.326 58.3094 75.689 55.6723 75.689 52.4555C75.689 49.2386 78.326 46.6016 81.5429 46.6016C84.7597 46.6016 87.3968 49.2386 87.3968 52.4555C87.3968 55.6723 84.7597 58.3094 81.5429 58.3094ZM81.5429 48.8646C79.6539 48.8646 77.952 50.3795 77.952 52.4555C77.952 54.5315 79.4669 56.0464 81.5429 56.0464C83.6189 56.0464 85.1338 54.5315 85.1338 52.4555C85.1338 50.3795 83.4318 48.8646 81.5429 48.8646Z" fill="#156D3A"/>
        <path d="M36.6202 63.0236C36.4331 63.0236 36.0591 62.8366 35.8721 62.6496L30.7663 58.3106H4.71352C2.4505 58.3106 0.374512 56.4216 0.374512 53.9716V45.8546C0.374512 43.5916 2.26348 41.5156 4.71352 41.5156H39.4443C41.7073 41.5156 43.7833 43.4046 43.7833 45.8546V53.9716C43.7833 56.2346 41.8943 58.3106 39.4443 58.3106H37.3683L37.9294 61.7144C37.9294 62.2755 37.7423 62.6496 37.3683 62.8553C36.9942 63.0423 36.8072 63.0423 36.6202 63.0423V63.0236ZM4.71352 44.1527C3.57266 44.1527 2.82455 44.9008 2.82455 46.0417V54.1586C2.82455 55.2995 3.57266 56.0476 4.71352 56.0476H31.1403C31.5144 56.0476 31.7014 56.2346 31.8884 56.4216L34.9182 59.0587L34.7312 57.3567C34.7312 56.9827 34.7312 56.6086 34.9182 56.4216C35.1053 56.2346 35.4793 56.0476 35.8534 56.0476H39.4443C40.5851 56.0476 41.3332 55.2995 41.3332 54.1586V46.0417C41.3332 44.9008 40.5851 44.1527 39.4443 44.1527H4.71352Z" fill="#156D3A"/>
        <path d="M49.6562 83.0345C49.4692 83.0345 49.2822 83.0345 49.0952 82.8475C48.7211 82.6605 48.3471 82.0994 48.5341 81.7066L49.0952 78.3028H47.0192C44.7562 78.3028 42.6802 76.4138 42.6802 73.9638V65.8468C42.6802 63.5838 44.5691 61.5078 47.0192 61.5078H81.7499C84.0129 61.5078 86.0889 63.3968 86.0889 65.8468V73.9638C86.0889 76.2268 84.2 78.3028 81.7499 78.3028H55.5102L50.4044 82.6418C50.2173 83.0158 49.8433 83.0158 49.6562 83.0158V83.0345ZM46.8135 64.1636C45.6726 64.1636 44.9245 64.9117 44.9245 66.0525V74.1695C44.9245 75.3103 45.6726 76.0584 46.8135 76.0584H50.4044C50.7784 76.0584 51.1525 76.2455 51.3395 76.4325C51.5265 76.6195 51.7135 76.9936 51.5265 77.3676L51.3395 78.8825L54.3693 76.2455C54.5563 76.0584 54.9304 75.8714 55.1174 75.8714H81.5442C82.6851 75.8714 83.4332 75.1233 83.4332 73.9825V65.8655C83.4332 64.7247 82.6851 63.9766 81.5442 63.9766H46.8135V64.1636Z" fill="#156D3A"/>
        <path d="M24.9119 86.6252C24.7249 86.6252 24.3508 86.4382 24.1638 86.2511L19.058 81.9121H4.33901C2.07599 81.9121 0 80.0232 0 77.5731V69.4562C0 67.1932 1.88896 65.1172 4.33901 65.1172H27.7547C30.0177 65.1172 32.0937 67.0062 32.0937 69.4562V77.5731C32.0937 79.8361 30.2047 81.9121 27.7547 81.9121H25.6787L26.2398 85.316C26.2398 85.8771 26.0527 86.2511 25.6787 86.4569C25.3046 86.6439 25.1176 86.6439 24.9306 86.6439L24.9119 86.6252ZM4.33901 67.7543C3.19815 67.7543 2.45004 68.5024 2.45004 69.6432V77.5731C2.45004 78.714 3.19815 79.4621 4.33901 79.4621H19.4507C19.8248 79.4621 20.0118 79.6491 20.1988 79.8361L23.2286 82.4732L23.0416 80.9583C23.0416 80.5842 23.0416 80.2102 23.2286 80.0232C23.4157 79.8361 23.7897 79.6491 24.1638 79.6491H27.7547C28.8955 79.6491 29.6436 78.901 29.6436 77.7601V69.6432C29.6436 68.5024 28.8955 67.7543 27.7547 67.7543H4.33901Z" fill="#156D3A"/>
        <path d="M36.6197 48.8677H8.30395C7.74287 48.8677 7.16309 48.3066 7.16309 47.7268C7.16309 47.147 7.72416 46.5859 8.30395 46.5859H36.6197C37.1808 46.5859 37.7606 47.147 37.7606 47.7268C37.7606 48.3066 37.1995 48.8677 36.6197 48.8677Z" fill="#156D3A"/>
        <path d="M28.3157 53.602H8.30395C7.74287 53.602 7.16309 53.041 7.16309 52.4612C7.16309 51.8814 7.72416 51.3203 8.30395 51.3203H28.3157C28.8768 51.3203 29.4566 51.8814 29.4566 52.4612C29.6436 53.0222 29.0825 53.602 28.3157 53.602Z" fill="#156D3A"/>
    </g>
    <defs>
        <clipPath id="clip0_2102_6326">
            <rect width="111" height="108.176" fill="white" transform="translate(0 0.914062)"/>
        </clipPath>
    </defs>
</svg>
