<svg width="106" height="106" viewBox="0 0 106 106" fill="none" xmlns="http://www.w3.org/2000/svg">
    <g clip-path="url(#clip0_2102_6362)">
        <path d="M53.4945 1.67969C73.7978 1.67969 90.4579 18.15 90.4579 38.643C90.4579 54.7338 80.3062 63.3485 69.3956 73.5001C64.0257 78.4715 58.485 83.6517 53.6843 90.3499C48.9026 83.8415 43.3429 78.4715 37.973 73.5001C26.8726 63.3485 16.9107 54.5441 16.9107 38.643C16.5312 18.15 33.0015 1.67969 53.4945 1.67969Z" fill="#37AD68"/>
        <path d="M89.2994 104.526H17.479L29.5471 73.3125H37.7823C43.1522 78.284 48.6929 83.4641 53.4936 90.1623C58.2753 83.6539 63.835 78.284 69.2049 73.3125H77.44C78.0093 75.0392 88.7491 103.198 89.3184 104.526H89.2994Z" fill="white"/>
        <path d="M98.1042 3.97656C101.368 3.97656 104.043 6.65204 104.043 9.91574C104.043 13.1794 101.368 15.8549 98.1042 15.8549C94.8405 15.8549 92.165 13.1794 92.165 9.91574C92.165 6.65204 94.6508 3.97656 98.1042 3.97656Z" fill="#FFEA2E"/>
        <path d="M10.1939 62.8203C14.8428 62.8203 18.6189 66.5963 18.6189 71.2452C18.6189 75.8941 14.8428 79.6701 10.1939 79.6701C5.54507 79.6701 1.76904 75.8941 1.76904 71.2452C1.76904 66.5963 5.54507 62.8203 10.1939 62.8203Z" fill="#FFEA2E"/>
        <path d="M73.2096 28.6807C74.3671 29.6294 74.3671 31.1664 73.3994 32.3239C72.4506 33.2726 71.1034 33.2726 70.1357 32.5136C60.3636 24.2785 46.1892 24.2785 36.4361 32.5136C35.4873 33.2726 33.9503 33.2726 33.1724 32.3239C32.2236 31.3751 32.2236 29.6484 33.3621 28.6807C44.6523 18.9085 61.7108 18.9085 73.1907 28.6807H73.2096Z" fill="#FFEA2E"/>
        <path d="M66.1306 35.5716C67.288 36.5203 67.4778 38.247 66.3203 39.2148C65.5613 39.9738 64.0243 40.1635 63.0566 39.4045C57.1174 34.8126 48.8823 34.8126 43.1329 39.4045C42.1841 40.1635 40.8369 39.9738 39.8692 39.2148C38.9204 38.266 38.9204 36.5393 40.0589 35.5716C47.7248 29.6324 58.4457 29.6324 66.1116 35.5716H66.1306Z" fill="#FFEA2E"/>
        <path d="M58.8455 42.4764C60.1928 43.2354 60.5723 45.1519 59.4148 46.3094C58.6558 47.0684 57.4983 47.2581 56.5496 46.6889C54.6331 45.5314 52.1473 45.5314 50.0411 46.6889C49.0924 47.2581 47.9349 47.0684 47.1759 46.3094C46.0184 45.1519 46.2271 43.2354 47.7451 42.4764C51.0089 40.5599 55.4111 40.5599 58.8455 42.4764Z" fill="#FFEA2E"/>
        <path d="M53.4951 62.5749C40.2885 62.5749 29.3589 51.8541 29.3589 38.4387C29.3589 37.8695 29.9281 37.2812 30.5164 37.2812C31.1046 37.2812 31.6738 37.8505 31.6738 38.4387C31.6738 50.3171 41.446 60.0892 53.3243 60.0892C65.2027 60.0892 74.9748 50.3171 74.9748 38.4387C74.9748 37.8695 75.5441 37.2812 76.1323 37.2812C76.7205 37.2812 77.2898 37.8505 77.2898 38.4387C77.4795 51.8541 66.7586 62.5749 53.533 62.5749H53.4951Z" fill="#156D3A"/>
        <path d="M89.3002 105.668H17.4798C17.1003 105.668 16.7208 105.479 16.5311 105.099C16.3413 104.72 16.3413 104.34 16.3413 103.942L28.4094 72.7278C28.5992 72.3483 28.9787 71.9688 29.5669 71.9688H37.802C38.3713 71.9688 38.9595 72.538 38.9595 73.1262C38.9595 73.7145 38.3903 74.2837 37.802 74.2837H30.5156L19.4153 103.012H87.7822L76.6818 74.2837H69.2057C68.6364 74.2837 68.0482 73.7145 68.0482 73.1262C68.0482 72.538 68.6175 71.9688 69.2057 71.9688H77.4408C78.0101 71.9688 78.3896 72.3483 78.5983 72.7278L90.6664 103.942C90.8562 104.321 90.6664 104.701 90.4767 105.099C90.0972 105.479 89.7177 105.668 89.3192 105.668H89.3002Z" fill="#156D3A"/>
        <path d="M58.277 91.2993H48.6946C48.1253 91.2993 47.5371 90.7301 47.5371 90.1419C47.5371 89.5536 48.1064 88.9844 48.6946 88.9844H58.277C58.8462 88.9844 59.4344 89.5536 59.4344 90.1419C59.4344 90.9009 58.8652 91.2993 58.277 91.2993Z" fill="#156D3A"/>
        <path d="M53.4944 91.3021C53.1149 91.3021 52.7354 91.1124 52.5457 90.7329C47.9537 84.4142 42.7735 79.4427 36.8344 74.0728L35.8856 73.3138C25.3545 63.5417 15.3926 54.5475 15.3926 38.4567C15.3736 17.3755 32.4132 0.335938 53.4944 0.335938C74.5756 0.335938 91.6152 17.3755 91.6152 38.4567C91.6152 54.5475 81.6533 63.7314 71.1222 73.3138L69.9647 74.2626C64.405 79.4427 58.8643 84.604 54.2534 90.9226C54.0637 91.1124 53.6842 91.3021 53.4944 91.3021ZM53.4944 2.82166C33.7604 2.82166 17.8783 18.9125 17.8783 38.4378C17.8783 53.5608 27.0622 61.796 37.6123 71.5681L38.5611 72.5169C43.931 77.2986 49.0922 82.289 53.4944 88.2282C58.0864 82.289 63.0768 77.5073 68.4277 72.5169L69.3765 71.5681C79.9076 61.796 89.1105 53.3711 89.1105 38.4378C89.1105 18.7037 73.0197 2.82166 53.4944 2.82166Z" fill="#156D3A"/>
        <path d="M77.4214 95.9165H65.3533C64.784 95.9165 64.1958 95.3473 64.1958 94.759C64.1958 94.1708 64.7651 93.6016 65.3533 93.6016H77.4214C77.9906 93.6016 78.5789 94.1708 78.5789 94.759C78.5789 95.3473 78.0096 95.9165 77.4214 95.9165Z" fill="#156D3A"/>
        <path d="M41.4263 95.9165H29.3582C28.7889 95.9165 28.2007 95.3473 28.2007 94.759C28.2007 94.1708 28.7699 93.6016 29.3582 93.6016H41.4263C41.9955 93.6016 42.5837 94.1708 42.5837 94.759C42.5837 95.3473 42.0145 95.9165 41.4263 95.9165Z" fill="#156D3A"/>
        <path d="M33.95 105.664C33.3807 105.664 32.7925 105.095 32.7925 104.506V85.3606C32.7925 84.7914 33.3617 84.2031 33.95 84.2031C34.5382 84.2031 35.1074 84.7724 35.1074 85.3606V104.506C35.2972 105.265 34.7279 105.664 33.95 105.664Z" fill="#156D3A"/>
        <path d="M69.9651 105.664C69.3958 105.664 68.8076 105.095 68.8076 104.507V92.4387C68.8076 91.8695 69.3769 91.2812 69.9651 91.2812C70.5533 91.2812 71.1226 91.8505 71.1226 92.4387V104.507C71.1226 105.266 70.5533 105.664 69.9651 105.664Z" fill="#156D3A"/>
        <path d="M82.032 86.5181H72.6394C72.0702 86.5181 71.4819 85.9488 71.4819 85.3606C71.4819 84.7724 72.0512 84.2031 72.6394 84.2031H82.032C82.6013 84.2031 83.1895 84.7724 83.1895 85.3606C83.1895 86.1196 82.6203 86.5181 82.032 86.5181Z" fill="#156D3A"/>
        <path d="M57.5167 48.2118C56.9474 48.2118 56.3592 48.022 55.7899 47.8323C55.0309 47.4528 54.0632 47.0733 53.1145 47.0733C52.1657 47.0733 51.198 47.263 50.439 47.8323C49.8697 48.2118 49.2815 48.2118 48.7123 48.2118C47.7635 48.2118 46.7958 47.8323 46.2265 47.0543C45.4675 46.2953 45.0691 45.1378 45.2778 43.9803C45.4675 42.8229 46.0368 41.8741 47.0045 41.3049C48.921 40.1474 51.0272 39.5781 53.3232 39.5781C55.6192 39.5781 57.7254 40.1474 59.6419 41.3049C60.5906 41.8741 61.3686 42.8418 61.3686 43.9803C61.5583 45.1378 61.1788 46.2763 60.4198 47.0543C59.4711 47.8133 58.5034 48.2118 57.5546 48.2118H57.5167ZM53.1145 44.7773C54.4617 44.7773 55.7899 45.1568 56.9474 45.726C57.3269 45.9158 57.8962 45.9158 58.2946 45.5363C58.4844 45.3465 58.6741 44.967 58.6741 44.5875C58.6741 44.208 58.4844 43.8285 58.1049 43.6388C56.5679 42.69 54.8412 42.2916 53.1334 42.2916C51.4257 42.2916 49.68 42.6711 48.162 43.6388C47.7825 43.8285 47.5927 44.208 47.5927 44.5875C47.5927 44.967 47.5927 45.3465 47.9722 45.5363C48.3517 45.9158 48.921 45.9158 49.3195 45.726C50.4769 45.1568 51.8052 44.7773 53.1524 44.7773H53.1145Z" fill="#156D3A"/>
        <path d="M64.5946 41.1339C63.8356 41.1339 63.0576 40.9441 62.2986 40.3749C59.6231 38.2687 56.3594 37.3009 53.1147 37.3009C49.87 37.3009 46.4165 38.4584 43.9308 40.3749C43.3615 40.9441 42.5836 41.1339 41.8246 41.1339C40.8758 41.1339 39.9081 40.7544 39.3388 39.9764C38.5798 39.2174 38.1814 38.2497 38.3901 37.1112C38.3901 36.1624 38.9593 35.1947 39.7373 34.4357C43.5703 31.3617 48.5417 29.8438 53.5322 29.8438C58.5226 29.8438 63.3043 31.5705 67.327 34.4357C68.086 35.005 68.6742 35.9727 68.6742 37.1112C68.6742 38.0599 68.2947 39.2174 67.7255 39.9764C66.568 40.7354 65.6192 41.1339 64.6705 41.1339H64.5946ZM53.1147 35.005C56.9477 35.005 60.7806 36.3522 63.8356 38.6482C64.0253 38.8379 64.2151 38.8379 64.5946 38.8379C64.9741 38.8379 65.1638 38.6482 65.5433 38.4584C65.7331 38.2687 65.9228 37.8892 65.9228 37.5097C65.9228 37.1302 65.7331 36.7507 65.5433 36.5609C62.0899 33.8854 57.6877 32.3485 53.2855 32.3485C48.8833 32.3485 44.4811 33.8854 41.0276 36.5609C40.8379 36.7507 40.6481 37.1302 40.6481 37.5097C40.6481 37.8892 40.8379 38.2687 41.0276 38.4584C41.2174 38.6482 41.5969 38.8379 41.9764 38.8379C42.1661 38.8379 42.5456 38.8379 42.7354 38.6482C45.4109 36.1624 49.2438 35.005 53.0768 35.005H53.1147Z" fill="#156D3A"/>
        <path d="M71.6919 34.2446C70.9329 34.2446 69.9652 33.8651 69.3959 33.2959C64.9937 29.4629 59.2443 27.3567 53.3051 27.3567C47.3659 27.3567 41.6165 29.4629 37.2143 33.2959C36.645 33.8651 35.6773 34.2446 34.9183 34.2446C33.9696 34.2446 33.0018 33.8651 32.4326 33.0872C31.6736 32.3282 31.2751 31.3604 31.4838 30.4117C31.4838 29.4629 32.0531 28.4952 32.8311 27.7362C38.5805 22.7648 46.0377 20.0703 53.7036 20.0703C61.3695 20.0703 68.8267 22.7458 74.5761 27.7362C75.3351 28.3055 75.7336 29.2732 75.9233 30.4117C75.9233 31.3604 75.5438 32.3282 74.7658 33.0872C73.6084 33.8462 72.6596 34.2446 71.6919 34.2446ZM53.1154 25.0418C59.6238 25.0418 65.7527 27.3377 70.7431 31.5502C70.9329 31.7399 71.3124 31.9297 71.5021 31.9297C71.8816 31.9297 72.0714 31.7399 72.2611 31.5502C72.4509 31.3604 72.6406 30.9809 72.6406 30.6014C72.6406 30.2219 72.4509 30.0322 72.2611 29.6527C66.8912 25.0607 60.0033 22.556 52.9256 22.556C45.8479 22.556 38.941 25.0418 33.5901 29.6527C33.4003 29.8424 33.2106 30.2219 33.2106 30.6014C33.2106 30.9809 33.4003 31.3604 33.5901 31.5502C33.7798 31.7399 34.1593 31.9297 34.3491 31.9297C34.7286 31.9297 34.9183 31.7399 35.1081 31.5502C40.478 27.3377 46.7967 25.0418 53.1154 25.0418Z" fill="#156D3A"/>
        <path d="M98.1043 17.1822C94.0816 17.1822 90.8179 13.9185 90.8179 9.89578C90.8179 5.87308 94.0816 2.60938 98.1043 2.60938C102.127 2.60938 105.391 5.87308 105.391 9.89578C105.391 13.9185 101.937 17.1822 98.1043 17.1822ZM98.1043 5.11408C95.4288 5.11408 93.3226 7.2203 93.3226 9.89578C93.3226 12.5713 95.4288 14.6775 98.1043 14.6775C100.78 14.6775 102.886 12.5713 102.886 9.89578C102.886 7.2203 100.59 5.11408 98.1043 5.11408Z" fill="#156D3A"/>
        <path d="M10.1932 80.8288C4.82329 80.8288 0.61084 76.6164 0.61084 71.2464C0.61084 65.8765 4.82329 61.6641 10.1932 61.6641C15.5631 61.6641 19.7756 65.8765 19.7756 71.2464C19.7756 76.6164 15.3734 80.8288 10.1932 80.8288ZM10.1932 64.1688C6.17052 64.1688 2.90682 67.4325 2.90682 71.4362C2.90682 75.4399 6.17052 78.7226 10.1932 78.7226C14.2159 78.7226 17.4796 75.4589 17.4796 71.4362C17.4796 67.4135 14.2159 64.1688 10.1932 64.1688Z" fill="#156D3A"/>
    </g>
    <defs>
        <clipPath id="clip0_2102_6362">
            <rect width="104.78" height="105.33" fill="white" transform="translate(0.609863 0.335938)"/>
        </clipPath>
    </defs>
</svg>
