<svg width="320" height="300" viewBox="0 0 320 300" fill="none" xmlns="http://www.w3.org/2000/svg">
    <path d="M166.718 250.31C233.121 250.31 286.955 196.555 286.955 130.011C286.955 63.4669 232.884 9.71094 166.718 9.71094C100.314 9.71094 46.4805 63.4669 46.4805 130.011C46.4805 196.555 100.314 250.31 166.718 250.31Z" fill="url(#paint0_linear_1430_61856)"/>
    <path d="M166.718 250.31C233.121 250.31 286.955 196.555 286.955 130.011C286.955 63.4669 232.884 9.71094 166.718 9.71094C100.314 9.71094 46.4805 63.4669 46.4805 130.011C46.4805 196.555 100.314 250.31 166.718 250.31Z" fill="url(#paint1_linear_1430_61856)" fill-opacity="0.5"/>
    <path d="M279.13 51.145C284.5 51.145 288.853 46.7981 288.853 41.4358C288.853 36.0735 284.5 31.7266 279.13 31.7266C273.76 31.7266 269.406 36.0735 269.406 41.4358C269.406 46.7981 273.76 51.145 279.13 51.145Z" fill="url(#paint2_linear_1430_61856)"/>
    <path d="M293.359 13.2614C297.026 13.2614 299.999 10.2927 299.999 6.6307C299.999 2.96866 297.026 0 293.359 0C289.692 0 286.719 2.96866 286.719 6.6307C286.719 10.2927 289.692 13.2614 293.359 13.2614Z" fill="url(#paint3_linear_1430_61856)"/>
    <path d="M293.359 13.2614C297.026 13.2614 299.999 10.2927 299.999 6.6307C299.999 2.96866 297.026 0 293.359 0C289.692 0 286.719 2.96866 286.719 6.6307C286.719 10.2927 289.692 13.2614 293.359 13.2614Z" fill="url(#paint4_linear_1430_61856)" fill-opacity="0.5"/>
    <path d="M52.8864 50.9098C56.5538 50.9098 59.5267 47.9412 59.5267 44.2791C59.5267 40.6171 56.5538 37.6484 52.8864 37.6484C49.2191 37.6484 46.2461 40.6171 46.2461 44.2791C46.2461 47.9412 49.2191 50.9098 52.8864 50.9098Z" fill="url(#paint5_linear_1430_61856)"/>
    <path d="M52.8864 50.9098C56.5538 50.9098 59.5267 47.9412 59.5267 44.2791C59.5267 40.6171 56.5538 37.6484 52.8864 37.6484C49.2191 37.6484 46.2461 40.6171 46.2461 44.2791C46.2461 47.9412 49.2191 50.9098 52.8864 50.9098Z" fill="url(#paint6_linear_1430_61856)" fill-opacity="0.5"/>
    <path d="M12.332 178.8C19.1428 178.8 24.664 173.287 24.664 166.486C24.664 159.685 19.1428 154.172 12.332 154.172C5.52123 154.172 0 159.685 0 166.486C0 173.287 5.52123 178.8 12.332 178.8Z" fill="url(#paint7_linear_1430_61856)"/>
    <g filter="url(#filter0_d_1430_61856)">
        <path d="M201.582 66.0641L237.866 196.31C239.052 200.809 236.443 205.309 231.937 206.493L104.111 240.357C99.6053 241.541 95.0993 238.936 93.9136 234.436L49.3286 66.3009C48.1428 61.8015 50.7515 57.3021 55.2574 56.1181L147.748 31.7266L201.582 66.0641Z" fill="url(#paint8_linear_1430_61856)"/>
    </g>
    <path d="M199.686 148.475L130.674 166.709L123.085 168.604L100.081 174.761C99.1323 174.998 98.4208 176.182 98.8951 177.366C99.1323 178.55 100.318 179.26 101.267 179.024L124.271 172.867L131.86 170.972L200.871 152.738C201.82 152.501 202.531 151.317 202.057 150.133C201.82 148.949 200.634 148.238 199.686 148.475Z" fill="#D5DDEA"/>
    <path d="M195.176 132.373L169.564 139.003L160.789 141.372L96.0457 158.659C95.0971 158.896 94.3856 160.08 94.86 161.264C95.0971 162.448 96.2829 163.158 97.2315 162.921L162.212 145.634L170.986 143.266L196.599 136.635C197.548 136.399 198.259 135.214 197.785 134.03C197.311 133.083 196.125 132.136 195.176 132.373Z" fill="#D5DDEA"/>
    <path d="M191.386 116.03L184.745 117.688L178.105 119.346L91.5438 142.316C90.5952 142.553 89.8837 143.737 90.358 144.921C90.5952 146.105 91.7809 146.816 92.7295 146.579L179.291 123.608L186.643 121.714L192.571 120.056C193.52 119.819 194.231 118.635 193.757 117.451C193.52 116.504 192.571 115.793 191.386 116.03Z" fill="#D5DDEA"/>
    <path d="M151.306 199.863L146.563 201.047C145.614 201.284 144.428 200.573 144.191 199.389C143.954 198.205 144.428 197.021 145.377 196.784L150.12 195.6C151.069 195.363 152.255 196.074 152.492 197.258C152.729 198.679 152.255 199.626 151.306 199.863Z" fill="#CED7E2"/>
    <path d="M136.836 203.66L109.563 210.764C108.614 211.001 107.428 210.29 107.191 209.106C106.954 207.922 107.428 206.738 108.377 206.501L135.65 199.397C136.598 199.16 137.784 199.871 138.021 201.055C138.496 202.239 138.021 203.423 136.836 203.66Z" fill="#D5DDEA"/>
    <path d="M188.064 99.7009L166.483 105.384L161.266 106.805L87.5106 126.224C86.562 126.46 85.8505 127.645 86.3248 128.829C86.562 130.013 87.7477 130.723 88.6963 130.486L162.214 111.305L167.432 109.884L188.775 104.2C189.961 103.963 190.435 102.779 190.198 101.359C190.198 100.411 189.013 99.4641 188.064 99.7009Z" fill="#D5DDEA"/>
    <path d="M137.077 63.9502L75.8908 80.0533C74.4679 80.527 73.045 79.5797 72.5706 78.1589C72.0963 76.738 73.045 75.3171 74.4679 74.8435L135.654 58.7404C137.077 58.2668 138.499 59.214 138.974 60.6349C139.448 62.0557 138.499 63.4766 137.077 63.9502Z" fill="#D5DDEA"/>
    <path d="M103.4 88.5752L79.9221 94.7323C78.4991 95.2059 77.0762 94.2587 76.6019 92.8378C76.1276 91.4169 77.0762 89.9961 78.4991 89.5225L101.74 83.3654C103.163 82.8918 104.586 83.839 105.06 85.2599C105.535 86.6807 104.586 88.1016 103.4 88.5752Z" fill="#D5DDEA"/>
    <path d="M147.75 31.7266L157.236 67.7218C158.659 72.6948 164.114 75.7733 169.094 74.3525L201.584 66.0641" fill="#D5DDEA"/>
    <g filter="url(#filter1_d_1430_61856)">
        <path d="M297.392 102.76L275.573 236.321C274.862 240.82 270.356 243.899 265.85 242.952L135.89 220.218C131.384 219.507 128.301 215.008 129.012 210.509L159.131 39.2945C159.842 34.7951 164.348 31.7166 168.854 32.6639L263.241 49.2406L297.392 102.76Z" fill="url(#paint9_linear_1430_61856)"/>
    </g>
    <path d="M261.107 176.899L190.91 164.585L183.321 163.164L159.842 159.138C158.894 158.901 157.708 159.849 157.708 161.033C157.471 162.217 158.182 163.401 159.131 163.637L182.609 167.663L190.198 169.084L260.396 181.398C261.344 181.635 262.53 180.688 262.53 179.504C262.767 178.32 262.293 177.136 261.107 176.899Z" fill="#CED7E2"/>
    <path d="M263.954 160.547L237.867 156.048L229.092 154.39L162.926 142.787C161.978 142.55 160.792 143.497 160.792 144.681C160.555 145.865 161.266 147.049 162.215 147.286L228.381 158.89L237.156 160.547L263.243 165.047C264.191 165.284 265.377 164.336 265.377 163.152C265.614 161.968 264.903 160.784 263.954 160.547Z" fill="#CED7E2"/>
    <path d="M267.274 143.969L260.396 142.785L253.519 141.601L165.298 126.208C164.349 125.972 163.163 126.919 163.163 128.103C162.926 129.287 163.637 130.471 164.586 130.708L252.807 146.101L260.396 147.521L266.325 148.469C267.274 148.705 268.46 147.758 268.46 146.574C268.934 145.39 268.46 144.206 267.274 143.969Z" fill="#D5DDEA"/>
    <path d="M195.653 203.418L190.91 202.708C189.962 202.471 189.25 201.287 189.487 200.103C189.725 198.919 190.673 197.972 191.622 198.208L196.365 198.919C197.313 199.156 198.025 200.34 197.788 201.524C197.551 202.945 196.602 203.418 195.653 203.418Z" fill="#CED7E2"/>
    <path d="M181.191 200.803L153.443 196.067C152.495 195.83 151.783 194.646 152.021 193.462C152.258 192.278 153.206 191.331 154.155 191.568L181.902 196.304C182.851 196.541 183.562 197.725 183.325 198.909C183.088 200.33 182.139 201.04 181.191 200.803Z" fill="#E3EAF2"/>
    <path d="M271.071 127.862L249.016 124.073L243.561 123.126L168.383 109.865C167.435 109.628 166.249 110.575 166.249 111.759C166.012 112.943 166.723 114.127 167.672 114.364L242.85 127.625L248.304 128.573L270.123 132.362C271.308 132.598 272.257 131.651 272.494 130.467C272.731 129.283 272.02 128.099 271.071 127.862Z" fill="#D5DDEA"/>
    <path d="M239.999 74.1159L177.628 63.2227C176.205 62.9859 175.256 61.565 175.493 60.1441C175.731 58.7233 177.153 57.776 178.576 58.0128L240.948 68.9061C242.371 69.1429 243.319 70.5638 243.082 71.9847C242.845 73.1687 241.422 74.3528 239.999 74.1159Z" fill="#D5DDEA"/>
    <path d="M198.973 82.1727L175.02 77.9102C173.597 77.6734 172.649 76.2525 172.886 74.8316C173.123 73.4108 174.546 72.4635 175.969 72.7003L199.684 76.9629C201.107 77.1997 202.056 78.6206 201.819 80.0415C201.582 81.4623 200.159 82.4096 198.973 82.1727Z" fill="#D5DDEA"/>
    <path d="M263.004 49.2422L256.601 85.9478C255.652 91.1577 259.447 96.1307 264.664 97.0779L297.391 102.761" fill="#D5DDEA"/>
    <path d="M219.449 239.413C241.415 239.413 259.221 221.632 259.221 199.698C259.221 177.765 241.415 159.984 219.449 159.984C197.484 159.984 179.678 177.765 179.678 199.698C179.678 221.632 197.484 239.413 219.449 239.413Z" fill="white"/>
    <path d="M275.859 262.225C274.352 262.225 272.845 261.623 271.64 260.269L246.478 235.144L245.574 235.745C237.438 241.763 227.946 244.923 218.303 244.923C206.702 244.923 195.1 240.259 186.512 232.135C177.472 223.559 172.5 211.974 172.5 199.336C172.5 174.211 192.991 153.75 218.153 153.75C235.329 153.75 250.396 162.777 258.532 178.123C266.517 193.318 265.463 211.072 255.669 225.364L255.066 226.267L280.379 251.543C282.94 254.1 282.337 256.658 281.885 258.012C280.68 260.419 278.269 262.225 275.859 262.225ZM218.153 166.237C199.771 166.237 185.005 181.132 185.005 199.336C185.005 220.099 202.031 232.586 218.605 232.586C228.699 232.586 237.89 228.073 244.369 219.948C252.354 210.018 253.71 196.628 248.136 185.044C242.41 173.459 230.959 166.237 218.153 166.237Z" fill="url(#paint10_radial_1430_61856)"/>
    <path d="M217.934 202.486L217.94 202.488C219.543 202.853 220.625 203.284 221.3 203.807C221.947 204.307 222.22 204.888 222.22 205.632C222.22 206.58 221.805 207.371 221.047 207.941C220.279 208.517 219.145 208.872 217.735 208.872C215.853 208.872 214.4 208.322 213.521 207.44C213.468 207.386 213.413 207.331 213.358 207.275C212.904 206.817 212.397 206.305 211.847 205.899C211.225 205.44 210.507 205.082 209.684 205.082C208.77 205.082 207.919 205.492 207.383 206.144C206.838 206.808 206.62 207.73 207.02 208.667C208.24 211.524 210.933 213.42 214.347 214.204V216.523C214.347 218.202 215.655 219.549 217.251 219.549H217.629C219.226 219.549 220.533 218.202 220.533 216.523V214.1C225.201 213.037 228.55 209.684 228.651 204.8V204.79C228.651 202.49 228.035 200.63 226.689 199.201C225.357 197.785 223.353 196.838 220.666 196.251C220.665 196.251 220.665 196.251 220.664 196.25L217.433 195.515C217.433 195.515 217.432 195.515 217.432 195.515C215.874 195.149 214.843 194.744 214.206 194.249C213.602 193.78 213.348 193.228 213.348 192.475C213.348 191.528 213.761 190.763 214.483 190.219C215.216 189.668 216.277 189.341 217.538 189.341C219.075 189.341 220.329 189.905 221.118 190.779C221.587 191.299 222.124 191.882 222.728 192.333C223.334 192.787 224.039 193.13 224.845 193.13C225.747 193.13 226.584 192.725 227.106 192.08C227.639 191.421 227.839 190.509 227.422 189.592C226.204 186.911 223.628 184.984 220.533 184.129V181.69C220.533 180.011 219.226 178.664 217.629 178.664H217.251C215.655 178.664 214.347 180.011 214.347 181.69V184.232C210.071 185.394 206.916 188.633 206.916 193.107C206.916 195.36 207.559 197.239 208.858 198.689C210.149 200.129 212.052 201.108 214.505 201.646L217.934 202.486Z" fill="url(#paint11_radial_1430_61856)"/>
    <defs>
        <filter id="filter0_d_1430_61856" x="27.043" y="20.7266" width="233.109" height="252.914" filterUnits="userSpaceOnUse" color-interpolation-filters="sRGB">
            <feFlood flood-opacity="0" result="BackgroundImageFix"/>
            <feColorMatrix in="SourceAlpha" type="matrix" values="0 0 0 0 0 0 0 0 0 0 0 0 0 0 0 0 0 0 127 0" result="hardAlpha"/>
            <feOffset dy="11"/>
            <feGaussianBlur stdDeviation="11"/>
            <feColorMatrix type="matrix" values="0 0 0 0 0.397708 0 0 0 0 0.47749 0 0 0 0 0.575 0 0 0 0.27 0"/>
            <feBlend mode="normal" in2="BackgroundImageFix" result="effect1_dropShadow_1430_61856"/>
            <feBlend mode="normal" in="SourceGraphic" in2="effect1_dropShadow_1430_61856" result="shape"/>
        </filter>
        <filter id="filter1_d_1430_61856" x="106.91" y="21.4922" width="212.482" height="254.633" filterUnits="userSpaceOnUse" color-interpolation-filters="sRGB">
            <feFlood flood-opacity="0" result="BackgroundImageFix"/>
            <feColorMatrix in="SourceAlpha" type="matrix" values="0 0 0 0 0 0 0 0 0 0 0 0 0 0 0 0 0 0 127 0" result="hardAlpha"/>
            <feOffset dy="11"/>
            <feGaussianBlur stdDeviation="11"/>
            <feColorMatrix type="matrix" values="0 0 0 0 0.397708 0 0 0 0 0.47749 0 0 0 0 0.575 0 0 0 0.27 0"/>
            <feBlend mode="normal" in2="BackgroundImageFix" result="effect1_dropShadow_1430_61856"/>
            <feBlend mode="normal" in="SourceGraphic" in2="effect1_dropShadow_1430_61856" result="shape"/>
        </filter>
        <linearGradient id="paint0_linear_1430_61856" x1="125.226" y1="53.8209" x2="290.804" y2="76.4708" gradientUnits="userSpaceOnUse">
            <stop stop-color="#D0D9E6"/>
            <stop offset="1" stop-color="#AEBCD0"/>
        </linearGradient>
        <linearGradient id="paint1_linear_1430_61856" x1="167.829" y1="-26.379" x2="167.829" y2="270.36" gradientUnits="userSpaceOnUse">
            <stop stop-color="#AEBCD0" stop-opacity="0"/>
            <stop offset="0.812566" stop-color="#A2A8B0"/>
        </linearGradient>
        <linearGradient id="paint2_linear_1430_61856" x1="305.048" y1="46.5263" x2="241.695" y2="58.6547" gradientUnits="userSpaceOnUse">
            <stop stop-color="#F3F4F5"/>
            <stop offset="0.767257" stop-color="#CFD8E7"/>
        </linearGradient>
        <linearGradient id="paint3_linear_1430_61856" x1="291.068" y1="2.43126" x2="300.211" y2="3.68452" gradientUnits="userSpaceOnUse">
            <stop stop-color="#D0D9E6"/>
            <stop offset="1" stop-color="#AEBCD0"/>
        </linearGradient>
        <linearGradient id="paint4_linear_1430_61856" x1="293.42" y1="-1.98921" x2="293.42" y2="14.3665" gradientUnits="userSpaceOnUse">
            <stop stop-color="#AEBCD0" stop-opacity="0"/>
            <stop offset="0.812566" stop-color="#A2A8B0"/>
        </linearGradient>
        <linearGradient id="paint5_linear_1430_61856" x1="50.595" y1="40.0797" x2="59.7386" y2="41.333" gradientUnits="userSpaceOnUse">
            <stop stop-color="#D0D9E6"/>
            <stop offset="1" stop-color="#AEBCD0"/>
        </linearGradient>
        <linearGradient id="paint6_linear_1430_61856" x1="52.9478" y1="35.6592" x2="52.9478" y2="52.0149" gradientUnits="userSpaceOnUse">
            <stop stop-color="#AEBCD0" stop-opacity="0"/>
            <stop offset="0.812566" stop-color="#A2A8B0"/>
        </linearGradient>
        <linearGradient id="paint7_linear_1430_61856" x1="45.2046" y1="172.942" x2="-35.1465" y2="188.325" gradientUnits="userSpaceOnUse">
            <stop stop-color="#F3F4F5"/>
            <stop offset="0.767257" stop-color="#CFD8E7"/>
        </linearGradient>
        <linearGradient id="paint8_linear_1430_61856" x1="143.536" y1="26.8942" x2="143.536" y2="242.894" gradientUnits="userSpaceOnUse">
            <stop stop-color="#FDFEFF"/>
            <stop offset="0.9964" stop-color="#ECF0F5"/>
        </linearGradient>
        <linearGradient id="paint9_linear_1430_61856" x1="213.096" y1="27.6201" x2="213.096" y2="245.394" gradientUnits="userSpaceOnUse">
            <stop stop-color="#FDFEFF"/>
            <stop offset="0.9964" stop-color="#ECF0F5"/>
        </linearGradient>
        <radialGradient id="paint10_radial_1430_61856" cx="0" cy="0" r="1" gradientUnits="userSpaceOnUse" gradientTransform="translate(257.507 -152.172) rotate(84.4817) scale(430.815 144.646)">
            <stop offset="0.160179" stop-color="#F57382"/>
            <stop offset="0.652044" stop-color="#F4364C"/>
        </radialGradient>
        <radialGradient id="paint11_radial_1430_61856" cx="0" cy="0" r="1" gradientUnits="userSpaceOnUse" gradientTransform="translate(223.722 63.3606) rotate(87.0814) scale(161.833 28.8661)">
            <stop offset="0.160179" stop-color="#F57382"/>
            <stop offset="0.652044" stop-color="#F4364C"/>
        </radialGradient>
    </defs>
</svg>
